<?xml version="1.0" encoding="UTF-8" standalone="no"?>
<!-- Generator: Adobe Illustrator 24.0.2, SVG Export Plug-In . SVG Version: 6.00 Build 0)  -->

<svg
   version="1.1"
   id="Capa_1"
   x="0px"
   y="0px"
   viewBox="0 0 39.9 39.9"
   style="enable-background:new 0 0 39.9 39.9;"
   xml:space="preserve"
   sodipodi:docname="Altaveu.svg"
   inkscape:version="1.1.1 (eb90963e84, 2021-10-02)"
   xmlns:inkscape="http://www.inkscape.org/namespaces/inkscape"
   xmlns:sodipodi="http://sodipodi.sourceforge.net/DTD/sodipodi-0.dtd"
   xmlns="http://www.w3.org/2000/svg"
   xmlns:svg="http://www.w3.org/2000/svg"><defs
   id="defs15" /><sodipodi:namedview
   id="namedview13"
   pagecolor="#505050"
   bordercolor="#eeeeee"
   borderopacity="1"
   inkscape:pageshadow="0"
   inkscape:pageopacity="0"
   inkscape:pagecheckerboard="0"
   showgrid="false"
   inkscape:zoom="21.152881"
   inkscape:cx="19.926363"
   inkscape:cy="19.973638"
   inkscape:window-width="1920"
   inkscape:window-height="1016"
   inkscape:window-x="0"
   inkscape:window-y="27"
   inkscape:window-maximized="1"
   inkscape:current-layer="g10" />
<style
   type="text/css"
   id="style2">
	.st0{fill:#FD4776;}
</style>
<g
   id="g10">
	<path
   class="st0"
   d="M36.2,20.9c-0.1,0.6-0.1,1.2-0.3,1.8c-0.6,3.1-1.9,5.7-4.1,7.9c-0.4,0.4-1.1,0.5-1.5,0c-0.4-0.4-0.4-1.1,0-1.5   c1.1-1.2,2-2.4,2.7-3.9c0.8-1.9,1.2-3.9,1.1-6c-0.1-1.8-0.6-3.4-1.4-5C32,13,31.3,11.9,30.4,11c-0.2-0.2-0.4-0.4-0.4-0.7   c-0.1-0.5,0.2-0.9,0.6-1.1C30.9,9,31.4,9,31.8,9.4c0.7,0.7,1.4,1.5,1.9,2.4c1.4,2.1,2.2,4.5,2.4,7c0,0.1,0,0.2,0.1,0.2   C36.2,19.7,36.2,20.3,36.2,20.9z"
   id="path4"
   style="fill:#ffffff" />
	<path
   class="st0"
   d="M23.3,20c0,4.6,0,9.2,0,13.8c0,0.5-0.1,0.8-0.5,1.1c-0.4,0.3-0.9,0.2-1.4-0.2c-1.7-1.3-3.4-2.7-5-4   c-1.6-1.3-3.3-2.6-4.9-4c-0.2-0.1-0.4-0.2-0.6-0.2c-1.5,0-3,0-4.5,0c-1.4,0-2.3-0.9-2.3-2.3c0-1.4,0-2.8,0-4.2c0-1.3,0-2.7,0-4   c0-1.4,0.9-2.3,2.3-2.3c1.5,0,3,0,4.5,0c0.2,0,0.4-0.1,0.5-0.2c3.3-2.7,6.7-5.3,10-8c0.4-0.3,0.7-0.5,1.2-0.3   c0.4,0.2,0.7,0.5,0.7,0.9c0,0.1,0,0.3,0,0.4C23.3,10.9,23.3,15.4,23.3,20z M21.1,31.7c0-7.8,0-15.6,0-23.4C21.1,8.4,21,8.4,21,8.4   c-2.7,2.2-5.5,4.4-8.2,6.6c-0.1,0.1-0.2,0.3-0.2,0.4c0,3,0,6.1,0,9.1c0,0.2,0.1,0.3,0.2,0.4c2.2,1.7,4.3,3.5,6.5,5.2   C19.9,30.7,20.5,31.2,21.1,31.7z M10.5,20c0-1.3,0-2.7,0-4c0-0.2,0-0.3-0.3-0.3c-1.3,0-2.5,0-3.8,0c-0.2,0-0.2,0.1-0.2,0.3   c0,2.7,0,5.4,0,8.1c0,0.2,0.1,0.3,0.3,0.3c1.2,0,2.5,0,3.7,0c0.2,0,0.3-0.1,0.3-0.3C10.5,22.6,10.5,21.3,10.5,20z"
   id="path6"
   style="fill:#ffffff" />
	<path
   class="st0"
   d="M31.9,19.9c0,3-1.1,5.5-3.1,7.6c-0.4,0.5-1.1,0.5-1.5,0.1c-0.5-0.4-0.5-1.1,0-1.5c0.7-0.8,1.3-1.6,1.7-2.5   c1.2-3,1-5.8-0.8-8.5c-0.3-0.4-0.6-0.7-0.9-1.1c-0.4-0.5-0.4-1.2,0-1.6c0.5-0.4,1.1-0.3,1.6,0.1c1.4,1.5,2.4,3.2,2.8,5.2   C31.8,18.4,31.8,19.2,31.9,19.9z"
   id="path8"
   style="fill:#ffffff" />
</g>
</svg>
