<svg id="a0c78c40-7fd4-4ee9-9a64-dc424565a661" data-name="Capa 1" xmlns="http://www.w3.org/2000/svg" viewBox="0 0 507.34 65.82"><defs><style>.be9e6e82-34a6-4243-8f26-1409f679a6da{fill:#26fefb;}.adf35310-9c44-4602-b514-392381598331{fill:#fd4776;}</style></defs><title>Ones-superior</title><path class="be9e6e82-34a6-4243-8f26-1409f679a6da" d="M511.48,0V22.21a3.62,3.62,0,1,1-7.24,0V0h-2.3V22.21a5.92,5.92,0,1,0,11.84,0V0Z" transform="translate(-43.97)"/><path class="be9e6e82-34a6-4243-8f26-1409f679a6da" d="M549,0l0,3.9a3.62,3.62,0,1,1-7.23,0V0h-2.31V3.9a5.93,5.93,0,0,0,11.85,0l0-3.9Z" transform="translate(-43.97)"/><path class="be9e6e82-34a6-4243-8f26-1409f679a6da" d="M529.92,0V13a3.62,3.62,0,0,1-7.23,0V0h-2.31V13a5.93,5.93,0,0,0,11.85,0V0Z" transform="translate(-43.97)"/><path class="be9e6e82-34a6-4243-8f26-1409f679a6da" d="M454.24,0V12.81a3.62,3.62,0,0,1-7.24,0L447,0h-2.31V12.81a5.92,5.92,0,1,0,11.84,0V0Z" transform="translate(-43.97)"/><path class="be9e6e82-34a6-4243-8f26-1409f679a6da" d="M493.55,7.24a1.14,1.14,0,0,0-1.15,1.15v4.42a3.62,3.62,0,0,1-7.24,0V0h-2.3V12.81a5.92,5.92,0,1,0,11.84,0V8.39A1.14,1.14,0,0,0,493.55,7.24Z" transform="translate(-43.97)"/><path class="be9e6e82-34a6-4243-8f26-1409f679a6da" d="M473.32,0V3.62a3.62,3.62,0,1,1-7.24,0V0h-2.3V3.62a5.92,5.92,0,1,0,11.84,0V0Z" transform="translate(-43.97)"/><path class="adf35310-9c44-4602-b514-392381598331" d="M492.4,0V3.17a1.15,1.15,0,1,0,2.3,0V0Z" transform="translate(-43.97)"/><path class="adf35310-9c44-4602-b514-392381598331" d="M435.24,0V22.22a1.16,1.16,0,0,0,2.31,0V0Z" transform="translate(-43.97)"/><path class="be9e6e82-34a6-4243-8f26-1409f679a6da" d="M436.4,25.83A1.15,1.15,0,0,0,435.24,27V59.9a3.62,3.62,0,0,1-7.23,0V0H425.7V59.9a5.93,5.93,0,0,0,11.85,0V27A1.15,1.15,0,0,0,436.4,25.83Z" transform="translate(-43.97)"/><path class="be9e6e82-34a6-4243-8f26-1409f679a6da" d="M417.37,12.72a1.16,1.16,0,0,0-1.15,1.16v7.34a3.62,3.62,0,1,1-7.23,0L409.13,0h-2.31l-.14,21.22a5.93,5.93,0,1,0,11.85,0V13.88A1.16,1.16,0,0,0,417.37,12.72Z" transform="translate(-43.97)"/><path class="be9e6e82-34a6-4243-8f26-1409f679a6da" d="M397.32,0l-.06,12.81a3.62,3.62,0,1,1-7.24,0L390,0h-2.3l0,12.81a5.92,5.92,0,1,0,11.84,0L399.62,0Z" transform="translate(-43.97)"/><path class="adf35310-9c44-4602-b514-392381598331" d="M416.16,0V7.16a1.16,1.16,0,1,0,2.31,0V0Z" transform="translate(-43.97)"/><path class="adf35310-9c44-4602-b514-392381598331" d="M378.1,0V17.45a1.15,1.15,0,1,0,2.3,0V0Z" transform="translate(-43.97)"/><path class="be9e6e82-34a6-4243-8f26-1409f679a6da" d="M72.59,0V13a3.62,3.62,0,0,1-7.23,0V0H63.05V13A5.93,5.93,0,0,0,74.9,13V0Z" transform="translate(-43.97)"/><path class="be9e6e82-34a6-4243-8f26-1409f679a6da" d="M91,0V22.21a3.62,3.62,0,1,1-7.23,0V0H81.49V22.21a5.93,5.93,0,0,0,11.85,0V0Z" transform="translate(-43.97)"/><path class="be9e6e82-34a6-4243-8f26-1409f679a6da" d="M53.51,0V3.9a3.62,3.62,0,1,1-7.23,0V0H44l0,3.9a5.93,5.93,0,0,0,11.85,0V0Z" transform="translate(-43.97)"/><path class="be9e6e82-34a6-4243-8f26-1409f679a6da" d="M148.26,0V12.81a3.62,3.62,0,1,1-7.23,0V0h-2.31V12.81a5.93,5.93,0,1,0,11.85,0V0Z" transform="translate(-43.97)"/><path class="be9e6e82-34a6-4243-8f26-1409f679a6da" d="M110.11,0V12.81a3.62,3.62,0,1,1-7.23,0V8.39a1.16,1.16,0,0,0-2.31,0v4.42a5.93,5.93,0,1,0,11.85,0V0Z" transform="translate(-43.97)"/><path class="be9e6e82-34a6-4243-8f26-1409f679a6da" d="M129.19,0V3.62a3.62,3.62,0,1,1-7.23,0V0h-2.31V3.62a5.93,5.93,0,0,0,11.85,0V0Z" transform="translate(-43.97)"/><path class="adf35310-9c44-4602-b514-392381598331" d="M100.57,0V3.17a1.16,1.16,0,1,0,2.31,0V0Z" transform="translate(-43.97)"/><path class="adf35310-9c44-4602-b514-392381598331" d="M157.73,0V22.22a1.15,1.15,0,0,0,2.3,0V0Z" transform="translate(-43.97)"/><path class="be9e6e82-34a6-4243-8f26-1409f679a6da" d="M167.27,0V59.9a3.62,3.62,0,0,1-7.24,0V27a1.15,1.15,0,1,0-2.3,0V59.9a5.92,5.92,0,1,0,11.84,0V0Z" transform="translate(-43.97)"/><path class="be9e6e82-34a6-4243-8f26-1409f679a6da" d="M205.27,0l0,12.81a3.62,3.62,0,1,1-7.23,0L198,0h-2.31l.06,12.81a5.93,5.93,0,0,0,11.85,0l0-12.82Z" transform="translate(-43.97)"/><path class="be9e6e82-34a6-4243-8f26-1409f679a6da" d="M186.15,0l.14,21.22a3.62,3.62,0,0,1-7.24,0V13.88a1.15,1.15,0,1,0-2.3,0v7.34a5.92,5.92,0,1,0,11.84,0L188.45,0Z" transform="translate(-43.97)"/><path class="adf35310-9c44-4602-b514-392381598331" d="M176.81,0V7.16a1.15,1.15,0,1,0,2.3,0V0Z" transform="translate(-43.97)"/><path class="adf35310-9c44-4602-b514-392381598331" d="M214.87,0V17.45a1.16,1.16,0,0,0,2.31,0V0Z" transform="translate(-43.97)"/><path class="be9e6e82-34a6-4243-8f26-1409f679a6da" d="M282.17,0V42.7a3.62,3.62,0,0,1-7.23,0V0h-2.31V42.7a5.93,5.93,0,0,0,11.85,0V0Z" transform="translate(-43.97)"/><path class="be9e6e82-34a6-4243-8f26-1409f679a6da" d="M320.34,0V48.46a3.62,3.62,0,1,1-7.24,0V0h-2.3V48.46a5.92,5.92,0,1,0,11.84,0V0Z" transform="translate(-43.97)"/><path class="be9e6e82-34a6-4243-8f26-1409f679a6da" d="M359,0V12.2a3.62,3.62,0,0,1-7.24,0V0h-2.3V12.2a5.92,5.92,0,0,0,11.84,0V0Z" transform="translate(-43.97)"/><path class="be9e6e82-34a6-4243-8f26-1409f679a6da" d="M339.68,0V22.22a3.62,3.62,0,1,1-7.24,0V0h-2.3V22.22a5.92,5.92,0,0,0,11.84,0V0Z" transform="translate(-43.97)"/><path class="be9e6e82-34a6-4243-8f26-1409f679a6da" d="M224.41,0V32a3.62,3.62,0,1,1-7.23,0V23.49a1.16,1.16,0,0,0-2.31,0V32a5.93,5.93,0,0,0,11.85,0V0Z" transform="translate(-43.97)"/><path class="be9e6e82-34a6-4243-8f26-1409f679a6da" d="M379.25,22.34a1.14,1.14,0,0,0-1.15,1.15V32a3.62,3.62,0,0,1-7.24,0V0h-2.3V32a5.92,5.92,0,1,0,11.84,0V23.49A1.14,1.14,0,0,0,379.25,22.34Z" transform="translate(-43.97)"/><path class="be9e6e82-34a6-4243-8f26-1409f679a6da" d="M243.49,0V12.2a3.62,3.62,0,1,1-7.23,0V0H234V12.2a5.93,5.93,0,0,0,11.85,0V0Z" transform="translate(-43.97)"/><path class="be9e6e82-34a6-4243-8f26-1409f679a6da" d="M301.25,0V26.73a3.62,3.62,0,1,1-7.23,0V0h-2.31V26.73a5.93,5.93,0,0,0,11.85,0V0Z" transform="translate(-43.97)"/><path class="be9e6e82-34a6-4243-8f26-1409f679a6da" d="M262.83,0V22.22a3.62,3.62,0,1,1-7.23,0V0h-2.31V22.22a5.93,5.93,0,0,0,11.85,0V0Z" transform="translate(-43.97)"/></svg>