<svg id="ad424381-9dc0-4a59-9e32-878cccb34be6" data-name="Capa 1" xmlns="http://www.w3.org/2000/svg" viewBox="0 0 526.74 63.74"><defs><style>.fff344b2-7e55-4577-973f-4968d33ce037{fill:#26fefb;}.e5501392-62e9-45f0-b0e8-48fc6a176673{fill:#fd4776;}</style></defs><title>Ones-inferior</title><path class="fff344b2-7e55-4577-973f-4968d33ce037" d="M493.55,187.55a1.14,1.14,0,0,0,1.15-1.15v-4.12a3.62,3.62,0,0,1,7.24,0v10.29h2.3V182.28a5.92,5.92,0,1,0-11.84,0v4.12A1.14,1.14,0,0,0,493.55,187.55Z" transform="translate(-34.27 -128.83)"/><path class="fff344b2-7e55-4577-973f-4968d33ce037" d="M532.23,192.57V181.85a3.62,3.62,0,1,1,7.23,0v10.72h2.31V181.85a5.93,5.93,0,1,0-11.85,0v10.72Z" transform="translate(-34.27 -128.83)"/><path class="fff344b2-7e55-4577-973f-4968d33ce037" d="M551.26,192.57v-1.21a3.62,3.62,0,0,1,7.23,0v.14l0,.19a6.4,6.4,0,0,0,.09.88H561a3.53,3.53,0,0,1-.17-1v-.14l0-.18a5.93,5.93,0,0,0-11.85.15v1.2Z" transform="translate(-34.27 -128.83)"/><path class="fff344b2-7e55-4577-973f-4968d33ce037" d="M513.78,192.57V172.69a3.31,3.31,0,1,1,6.6,0v19.88h2.31V172.69a5.61,5.61,0,1,0-11.21,0v19.88Z" transform="translate(-34.27 -128.83)"/><path class="fff344b2-7e55-4577-973f-4968d33ce037" d="M456.54,192.57V182.28a3.62,3.62,0,1,1,7.24,0v10.29h2.3V182.28a5.92,5.92,0,1,0-11.84,0v10.29Z" transform="translate(-34.27 -128.83)"/><path class="fff344b2-7e55-4577-973f-4968d33ce037" d="M436.4,169.08a1.16,1.16,0,0,0,1.15-1.16V134.76a3.62,3.62,0,1,1,7.23,0l-.06,57.82H447l.07-57.81a5.93,5.93,0,1,0-11.85,0v33.16A1.16,1.16,0,0,0,436.4,169.08Z" transform="translate(-34.27 -128.83)"/><path class="fff344b2-7e55-4577-973f-4968d33ce037" d="M475.62,192.57v-1.4a3.62,3.62,0,0,1,7.24,0v1.4h2.3v-1.4a5.92,5.92,0,0,0-11.84,0v1.4Z" transform="translate(-34.27 -128.83)"/><path class="e5501392-62e9-45f0-b0e8-48fc6a176673" d="M437.55,192.57v-20a1.16,1.16,0,0,0-2.31,0v20Z" transform="translate(-34.27 -128.83)"/><path class="fff344b2-7e55-4577-973f-4968d33ce037" d="M417.31,182.84a1.16,1.16,0,0,0,1.16-1.16v-9.12a3.62,3.62,0,0,1,7.23,0v20H428v-20a5.93,5.93,0,0,0-11.85,0v9.12A1.16,1.16,0,0,0,417.31,182.84Z" transform="translate(-34.27 -128.83)"/><path class="fff344b2-7e55-4577-973f-4968d33ce037" d="M399.64,192.57l.05-9.6a3.62,3.62,0,1,1,7.23,0l-.06,9.61h2.3l.07-9.6a5.93,5.93,0,0,0-11.85,0l0,9.6Z" transform="translate(-34.27 -128.83)"/><path class="fff344b2-7e55-4577-973f-4968d33ce037" d="M379.25,173.72a1.15,1.15,0,0,0,1.15-1.16v-9.32a3.62,3.62,0,0,1,7.24,0l.05,29.33H390l-.05-29.33a5.92,5.92,0,0,0-11.84,0v9.32A1.15,1.15,0,0,0,379.25,173.72Z" transform="translate(-34.27 -128.83)"/><path class="e5501392-62e9-45f0-b0e8-48fc6a176673" d="M418.47,192.57V188a1.16,1.16,0,0,0-2.31,0v4.62Z" transform="translate(-34.27 -128.83)"/><path class="e5501392-62e9-45f0-b0e8-48fc6a176673" d="M380.4,192.57v-14.7a1.15,1.15,0,1,0-2.3,0v14.7Z" transform="translate(-34.27 -128.83)"/><path class="fff344b2-7e55-4577-973f-4968d33ce037" d="M74.9,192.57V172.69a3.31,3.31,0,1,1,6.59,0v19.88H83.8V172.69a5.61,5.61,0,1,0-11.21,0v19.88Z" transform="translate(-34.27 -128.83)"/><path class="fff344b2-7e55-4577-973f-4968d33ce037" d="M55.82,192.57V181.85a3.62,3.62,0,1,1,7.23,0v10.72h2.31V181.85a5.93,5.93,0,1,0-11.85,0v10.72Z" transform="translate(-34.27 -128.83)"/><path class="fff344b2-7e55-4577-973f-4968d33ce037" d="M93.34,192.57V182.28a3.62,3.62,0,1,1,7.23,0v4.12a1.16,1.16,0,0,0,2.31,0v-4.12a5.93,5.93,0,0,0-11.85,0v10.29Z" transform="translate(-34.27 -128.83)"/><path class="fff344b2-7e55-4577-973f-4968d33ce037" d="M36.64,192.57a6.4,6.4,0,0,0,.1-.88l0-.19v-.14a3.62,3.62,0,0,1,7.24,0v1.21h2.31v-1.21a5.92,5.92,0,0,0-11.84-.14l0,.18v.14a3.89,3.89,0,0,1-.16,1Z" transform="translate(-34.27 -128.83)"/><path class="fff344b2-7e55-4577-973f-4968d33ce037" d="M131.5,192.57V182.28a3.62,3.62,0,1,1,7.23,0v10.29H141V182.28a5.93,5.93,0,0,0-11.85,0v10.29Z" transform="translate(-34.27 -128.83)"/><path class="fff344b2-7e55-4577-973f-4968d33ce037" d="M150.56,192.57l-.07-57.81a3.62,3.62,0,1,1,7.24,0v33.16a1.15,1.15,0,1,0,2.3,0V134.76a5.92,5.92,0,1,0-11.84,0l.06,57.81Z" transform="translate(-34.27 -128.83)"/><path class="fff344b2-7e55-4577-973f-4968d33ce037" d="M112.42,192.57v-1.4a3.62,3.62,0,1,1,7.23,0v1.4H122v-1.4a5.93,5.93,0,0,0-11.85,0v1.4Z" transform="translate(-34.27 -128.83)"/><path class="e5501392-62e9-45f0-b0e8-48fc6a176673" d="M160,192.57v-20a1.15,1.15,0,0,0-2.3,0v20Z" transform="translate(-34.27 -128.83)"/><path class="fff344b2-7e55-4577-973f-4968d33ce037" d="M169.57,192.57v-20a3.62,3.62,0,0,1,7.24,0v9.12a1.15,1.15,0,1,0,2.3,0v-9.12a5.92,5.92,0,0,0-11.84,0v20Z" transform="translate(-34.27 -128.83)"/><path class="fff344b2-7e55-4577-973f-4968d33ce037" d="M207.59,192.57l0-29.33a3.62,3.62,0,1,1,7.23,0v9.32a1.16,1.16,0,1,0,2.31,0v-9.32a5.93,5.93,0,0,0-11.85,0l-.05,29.33Z" transform="translate(-34.27 -128.83)"/><path class="fff344b2-7e55-4577-973f-4968d33ce037" d="M188.42,192.57l-.07-9.6a3.62,3.62,0,1,1,7.24,0l0,9.59h2.31l-.05-9.6a5.92,5.92,0,1,0-11.84,0l.06,9.59Z" transform="translate(-34.27 -128.83)"/><path class="e5501392-62e9-45f0-b0e8-48fc6a176673" d="M179.11,192.57V188a1.15,1.15,0,0,0-2.3,0v4.62Z" transform="translate(-34.27 -128.83)"/><path class="e5501392-62e9-45f0-b0e8-48fc6a176673" d="M217.18,192.57v-14.7a1.16,1.16,0,0,0-2.31,0v14.7Z" transform="translate(-34.27 -128.83)"/><path class="fff344b2-7e55-4577-973f-4968d33ce037" d="M265.14,192.57V152.15a3.75,3.75,0,1,1,7.49,0v40.42h2.31V152.15a6.06,6.06,0,0,0-12.11,0v40.42Z" transform="translate(-34.27 -128.83)"/><path class="fff344b2-7e55-4577-973f-4968d33ce037" d="M245.8,192.57V172.69a3.75,3.75,0,0,1,7.49,0v19.88h2.31V172.69a6.06,6.06,0,0,0-12.11,0v19.88Z" transform="translate(-34.27 -128.83)"/><path class="fff344b2-7e55-4577-973f-4968d33ce037" d="M284.48,192.57V167.08a3.62,3.62,0,1,1,7.23,0v25.49H294V167.08a5.93,5.93,0,1,0-11.85,0v25.49Z" transform="translate(-34.27 -128.83)"/><path class="fff344b2-7e55-4577-973f-4968d33ce037" d="M226.72,192.57V179.65a3.62,3.62,0,0,1,7.23,0v12.92h2.31V179.65a5.93,5.93,0,0,0-11.85,0v12.92Z" transform="translate(-34.27 -128.83)"/><path class="fff344b2-7e55-4577-973f-4968d33ce037" d="M303.56,192.57v-4.16a3.62,3.62,0,0,1,7.24,0v4.16h2.3v-4.16a5.93,5.93,0,0,0-11.85,0v4.16Z" transform="translate(-34.27 -128.83)"/><path class="fff344b2-7e55-4577-973f-4968d33ce037" d="M361.32,192.57V179.65a3.62,3.62,0,0,1,7.24,0v12.92h2.3V179.65a5.92,5.92,0,1,0-11.84,0v12.92Z" transform="translate(-34.27 -128.83)"/><path class="fff344b2-7e55-4577-973f-4968d33ce037" d="M342,192.57V172.69a3.75,3.75,0,0,1,7.5,0v19.88h2.3V172.69a6.05,6.05,0,1,0-12.1,0v19.88Z" transform="translate(-34.27 -128.83)"/><path class="fff344b2-7e55-4577-973f-4968d33ce037" d="M322.64,192.57V146.38a3.75,3.75,0,0,1,7.5,0v46.19h2.3V146.38a6,6,0,0,0-12.1,0v46.19Z" transform="translate(-34.27 -128.83)"/></svg>