<?xml version="1.0" encoding="utf-8"?>
<!-- Generator: Adobe Illustrator 24.0.2, SVG Export Plug-In . SVG Version: 6.00 Build 0)  -->
<svg version="1.1" id="Capa_1" xmlns="http://www.w3.org/2000/svg" xmlns:xlink="http://www.w3.org/1999/xlink" x="0px" y="0px"
	 viewBox="0 0 595.3 192.6" style="enable-background:new 0 0 595.3 192.6;" xml:space="preserve">
<style type="text/css">
	.st0{fill:#26FEFB;}
	.st1{fill:#FD4776;}
</style>
<g>
	<path class="st0" d="M574.7,99.1h-10.2c-2,0-3.6-1.6-3.6-3.6v-0.1l0-0.2c-0.1-3.2-2.7-5.8-5.9-5.8c-3.3,0-5.9,2.7-5.9,5.9l0,10.1
		c0,2-1.6,3.6-3.6,3.6s-3.6-1.6-3.6-3.6V85.8c0-3.3-2.7-5.9-5.9-5.9s-5.9,2.7-5.9,5.9v28.7c0,2-1.6,3.6-3.6,3.6s-3.6-1.6-3.6-3.6
		V76.6c0-3.3-2.5-5.9-5.6-5.9c-3.1,0-5.6,2.7-5.6,5.9v47.1c0,2-1.6,3.6-3.6,3.6s-3.6-1.6-3.6-3.6V86.2c0-3.3-2.7-5.9-5.9-5.9
		s-5.9,2.7-5.9,5.9v4.1c0,0.6,0.5,1.2,1.2,1.2c0.6,0,1.2-0.5,1.2-1.2v-4.1c0-2,1.6-3.6,3.6-3.6s3.6,1.6,3.6,3.6v37.5
		c0,3.3,2.7,5.9,5.9,5.9c3.3,0,5.9-2.7,5.9-5.9V76.6c0-2,1.5-3.6,3.3-3.6c1.8,0,3.3,1.6,3.3,3.6v37.8c0,3.3,2.7,5.9,5.9,5.9
		c3.3,0,5.9-2.7,5.9-5.9V85.8c0-2,1.6-3.6,3.6-3.6s3.6,1.6,3.6,3.6v19.6c0,3.3,2.7,5.9,5.9,5.9c3.3,0,5.9-2.7,5.9-5.9l0-10.1
		c0-2,1.6-3.6,3.6-3.6s3.6,1.6,3.6,3.6v0.1l0,0.2c0.1,3.2,2.7,5.8,5.9,5.8h10.2c0.6,0,1.2-0.5,1.2-1.2
		C575.8,99.6,575.3,99.1,574.7,99.1z"/>
	<path class="st0" d="M493.6,108.7c-0.6,0-1.2,0.5-1.2,1.2v4.4c0,2-1.6,3.6-3.6,3.6s-3.6-1.6-3.6-3.6V95.1c0-3.3-2.7-5.9-5.9-5.9
		s-5.9,2.7-5.9,5.9v10c0,2-1.6,3.6-3.6,3.6s-3.6-1.6-3.6-3.6V86.2c0-3.3-2.7-5.9-5.9-5.9s-5.9,2.7-5.9,5.9v28.1c0,2-1.6,3.6-3.6,3.6
		s-3.6-1.6-3.6-3.6l0.1-75.6c0-3.3-2.7-5.9-5.9-5.9s-5.9,2.7-5.9,5.9v33.2c0,0.6,0.5,1.2,1.2,1.2c0.6,0,1.2-0.5,1.2-1.2V38.7
		c0-2,1.6-3.6,3.6-3.6s3.6,1.6,3.6,3.6l-0.1,75.6c0,3.3,2.7,5.9,5.9,5.9c3.3,0,5.9-2.7,5.9-5.9V86.2c0-2,1.6-3.6,3.6-3.6
		s3.6,1.6,3.6,3.6v18.9c0,3.3,2.7,5.9,5.9,5.9c3.3,0,5.9-2.7,5.9-5.9v-10c0-2,1.6-3.6,3.6-3.6s3.6,1.6,3.6,3.6v19.2
		c0,3.3,2.7,5.9,5.9,5.9c3.3,0,5.9-2.7,5.9-5.9v-4.4C494.7,109.2,494.2,108.7,493.6,108.7z"/>
	<path class="st1" d="M493.6,94.2c-0.6,0-1.2,0.5-1.2,1.2v9.3c0,0.6,0.5,1.2,1.2,1.2c0.6,0,1.2-0.5,1.2-1.2v-9.3
		C494.7,94.7,494.2,94.2,493.6,94.2z"/>
	<path class="st1" d="M436.4,75.3c-0.6,0-1.2,0.5-1.2,1.2v47.2c0,0.6,0.5,1.2,1.2,1.2c0.6,0,1.2-0.5,1.2-1.2V76.5
		C437.5,75.8,437,75.3,436.4,75.3z"/>
	<path class="st0" d="M436.4,127.3c-0.6,0-1.2,0.5-1.2,1.2v32.9c0,2-1.6,3.6-3.6,3.6s-3.6-1.6-3.6-3.6V76.5c0-3.3-2.7-5.9-5.9-5.9
		s-5.9,2.7-5.9,5.9v9.1c0,0.6,0.5,1.2,1.2,1.2s1.2-0.5,1.2-1.2v-9.1c0-2,1.6-3.6,3.6-3.6s3.6,1.6,3.6,3.6v84.9
		c0,3.3,2.7,5.9,5.9,5.9c3.3,0,5.9-2.7,5.9-5.9v-32.9C437.5,127.8,437,127.3,436.4,127.3z"/>
	<path class="st0" d="M417.4,114.2c-0.6,0-1.2,0.5-1.2,1.2v7.3c0,2-1.6,3.6-3.6,3.6s-3.6-1.6-3.6-3.6l0.2-35.8
		c0-3.3-2.7-5.9-5.9-5.9s-5.9,2.7-5.9,5.9l-0.1,27.4c0,2-1.6,3.6-3.6,3.6s-3.6-1.6-3.6-3.6l-0.1-47.1c0-3.3-2.7-5.9-5.9-5.9
		c-3.3,0-5.9,2.7-5.9,5.9v9.3c0,0.6,0.5,1.2,1.2,1.2c0.6,0,1.2-0.5,1.2-1.2v-9.3c0-2,1.6-3.6,3.6-3.6s3.6,1.6,3.6,3.6l0.1,47.1
		c0,3.3,2.7,5.9,5.9,5.9c3.3,0,5.9-2.7,5.9-5.9l0.1-27.4c0-2,1.6-3.6,3.6-3.6s3.6,1.6,3.6,3.6l-0.2,35.8c0,3.3,2.7,5.9,5.9,5.9
		c3.3,0,5.9-2.7,5.9-5.9v-7.3C418.5,114.7,418,114.2,417.4,114.2z"/>
	<path class="st1" d="M417.3,109.8c0.6,0,1.2-0.5,1.2-1.2V91.9c0-0.6-0.5-1.2-1.2-1.2s-1.2,0.5-1.2,1.2v16.8
		C416.2,109.3,416.7,109.8,417.3,109.8z"/>
	<path class="st1" d="M379.3,80.6c-0.6,0-1.2,0.5-1.2,1.2v37.1c0,0.6,0.5,1.2,1.2,1.2c0.6,0,1.2-0.5,1.2-1.2V81.8
		C380.4,81.1,379.9,80.6,379.3,80.6z"/>
	<path class="st0" d="M100.6,90.3c0,0.6,0.5,1.2,1.2,1.2c0.6,0,1.2-0.5,1.2-1.2v-4.1c0-3.3-2.7-5.9-5.9-5.9c-3.3,0-5.9,2.7-5.9,5.9
		v37.5c0,2-1.6,3.6-3.6,3.6s-3.6-1.6-3.6-3.6V76.6c0-3.3-2.5-5.9-5.6-5.9s-5.6,2.7-5.6,5.9v37.8c0,2-1.6,3.6-3.6,3.6
		s-3.6-1.6-3.6-3.6V85.8c0-3.3-2.7-5.9-5.9-5.9c-3.3,0-5.9,2.7-5.9,5.9v19.6c0,2-1.6,3.6-3.6,3.6s-3.6-1.6-3.6-3.6l0-10.1
		c0-3.3-2.7-5.9-5.9-5.9c-3.2,0-5.8,2.6-5.9,5.8l0,0.2v0.1c0,2-1.6,3.6-3.6,3.6H20.6c-0.6,0-1.2,0.5-1.2,1.2c0,0.6,0.5,1.2,1.2,1.2
		h10.2c3.2,0,5.8-2.6,5.9-5.8l0-0.2v-0.1c0-2,1.6-3.6,3.6-3.6s3.6,1.6,3.6,3.6l0,10.1c0,3.3,2.7,5.9,5.9,5.9c3.3,0,5.9-2.7,5.9-5.9
		V85.8c0-2,1.6-3.6,3.6-3.6s3.6,1.6,3.6,3.6v28.7c0,3.3,2.7,5.9,5.9,5.9c3.3,0,5.9-2.7,5.9-5.9V76.6c0-2,1.5-3.6,3.3-3.6
		c1.8,0,3.3,1.6,3.3,3.6v47.1c0,3.3,2.7,5.9,5.9,5.9c3.3,0,5.9-2.7,5.9-5.9V86.2c0-2,1.6-3.6,3.6-3.6s3.6,1.6,3.6,3.6V90.3z"/>
	<path class="st0" d="M157.7,71.8c0,0.6,0.5,1.2,1.2,1.2c0.6,0,1.2-0.5,1.2-1.2V38.7c0-3.3-2.7-5.9-5.9-5.9c-3.3,0-5.9,2.7-5.9,5.9
		l0.1,75.6c0,2-1.6,3.6-3.6,3.6s-3.6-1.6-3.6-3.6V86.2c0-3.3-2.7-5.9-5.9-5.9c-3.3,0-5.9,2.7-5.9,5.9v18.9c0,2-1.6,3.6-3.6,3.6
		s-3.6-1.6-3.6-3.6v-10c0-3.3-2.7-5.9-5.9-5.9c-3.3,0-5.9,2.7-5.9,5.9v19.2c0,2-1.6,3.6-3.6,3.6s-3.6-1.6-3.6-3.6v-4.4
		c0-0.6-0.5-1.2-1.2-1.2c-0.6,0-1.2,0.5-1.2,1.2v4.4c0,3.3,2.7,5.9,5.9,5.9c3.3,0,5.9-2.7,5.9-5.9V95.1c0-2,1.6-3.6,3.6-3.6
		c2,0,3.6,1.6,3.6,3.6v10c0,3.3,2.7,5.9,5.9,5.9c3.3,0,5.9-2.7,5.9-5.9V86.2c0-2,1.6-3.6,3.6-3.6s3.6,1.6,3.6,3.6v28.1
		c0,3.3,2.7,5.9,5.9,5.9c3.3,0,5.9-2.7,5.9-5.9l-0.1-75.6c0-2,1.6-3.6,3.6-3.6s3.6,1.6,3.6,3.6V71.8z"/>
	<path class="st1" d="M101.7,94.2c-0.6,0-1.2,0.5-1.2,1.2v9.3c0,0.6,0.5,1.2,1.2,1.2c0.6,0,1.2-0.5,1.2-1.2v-9.3
		C102.9,94.7,102.4,94.2,101.7,94.2z"/>
	<path class="st1" d="M158.9,75.3c-0.6,0-1.2,0.5-1.2,1.2v47.2c0,0.6,0.5,1.2,1.2,1.2c0.6,0,1.2-0.5,1.2-1.2V76.5
		C160,75.8,159.5,75.3,158.9,75.3z"/>
	<path class="st0" d="M176.8,85.6c0,0.6,0.5,1.2,1.2,1.2c0.6,0,1.2-0.5,1.2-1.2v-9.1c0-3.3-2.7-5.9-5.9-5.9c-3.3,0-5.9,2.7-5.9,5.9
		v84.9c0,2-1.6,3.6-3.6,3.6s-3.6-1.6-3.6-3.6v-32.9c0-0.6-0.5-1.2-1.2-1.2c-0.6,0-1.2,0.5-1.2,1.2v32.9c0,3.3,2.7,5.9,5.9,5.9
		s5.9-2.7,5.9-5.9V76.5c0-2,1.6-3.6,3.6-3.6s3.6,1.6,3.6,3.6V85.6z"/>
	<path class="st0" d="M214.9,76.5c0,0.6,0.5,1.2,1.2,1.2c0.6,0,1.2-0.5,1.2-1.2v-9.3c0-3.3-2.7-5.9-5.9-5.9c-3.3,0-5.9,2.7-5.9,5.9
		l-0.1,47.1c0,2-1.6,3.6-3.6,3.6s-3.6-1.6-3.6-3.6l-0.1-27.4c0-3.3-2.7-5.9-5.9-5.9s-5.9,2.7-5.9,5.9l0.2,35.8c0,2-1.6,3.6-3.6,3.6
		s-3.6-1.6-3.6-3.6v-7.3c0-0.6-0.5-1.2-1.2-1.2c-0.6,0-1.2,0.5-1.2,1.2v7.3c0,3.3,2.7,5.9,5.9,5.9c3.3,0,5.9-2.7,5.9-5.9l-0.2-35.8
		c0-2,1.6-3.6,3.6-3.6s3.6,1.6,3.6,3.6l0.1,27.4c0,3.3,2.7,5.9,5.9,5.9s5.9-2.7,5.9-5.9l0.1-47.1c0-2,1.6-3.6,3.6-3.6
		s3.6,1.6,3.6,3.6V76.5z"/>
	<path class="st1" d="M178,90.7c-0.6,0-1.2,0.5-1.2,1.2v16.8c0,0.6,0.5,1.2,1.2,1.2c0.6,0,1.2-0.5,1.2-1.2V91.9
		C179.1,91.2,178.6,90.7,178,90.7z"/>
	<path class="st1" d="M216,80.6c-0.6,0-1.2,0.5-1.2,1.2v37.1c0,0.6,0.5,1.2,1.2,1.2c0.6,0,1.2-0.5,1.2-1.2V81.8
		C217.2,81.1,216.7,80.6,216,80.6z"/>
	<path class="st0" d="M379.3,123.8c-0.6,0-1.2,0.5-1.2,1.2v8.5c0,2-1.6,3.6-3.6,3.6s-3.6-1.6-3.6-3.6V83.6c0-3.3-2.7-5.9-5.9-5.9
		c-3.3,0-5.9,2.7-5.9,5.9v30.1c0,2-1.6,3.6-3.6,3.6s-3.6-1.6-3.6-3.6V76.6c0-3.3-2.7-6.1-6.1-6.1c-3.3,0-6.1,2.7-6.1,6.1v47.1
		c0,2-1.6,3.6-3.6,3.6s-3.6-1.6-3.6-3.6V50.3c0-3.3-2.7-6.1-6.1-6.1c-3.3,0-6.1,2.7-6.1,6.1v99.6c0,2-1.6,3.6-3.6,3.6
		s-3.6-1.6-3.6-3.6V92.3c0-3.3-2.7-5.9-5.9-5.9c-3.3,0-5.9,2.7-5.9,5.9v35.9c0,2-1.6,3.6-3.6,3.6s-3.6-1.6-3.6-3.6V71
		c0-3.3-2.7-5.9-5.9-5.9c-3.3,0-5.9,2.7-5.9,5.9v73.2c0,2-1.6,3.6-3.6,3.6s-3.6-1.6-3.6-3.6V56.1c0-3.3-2.7-6.1-6.1-6.1
		s-6.1,2.7-6.1,6.1v67.6c0,2-1.6,3.6-3.6,3.6s-3.6-1.6-3.6-3.6V76.6c0-3.3-2.7-6.1-6.1-6.1s-6.1,2.7-6.1,6.1v37.1
		c0,2-1.6,3.6-3.6,3.6s-3.6-1.6-3.6-3.6V83.6c0-3.3-2.7-5.9-5.9-5.9c-3.3,0-5.9,2.7-5.9,5.9v49.9c0,2-1.6,3.6-3.6,3.6
		s-3.6-1.6-3.6-3.6v-8.5c0-0.6-0.5-1.2-1.2-1.2c-0.6,0-1.2,0.5-1.2,1.2v8.5c0,3.3,2.7,5.9,5.9,5.9c3.3,0,5.9-2.7,5.9-5.9V83.6
		c0-2,1.6-3.6,3.6-3.6s3.6,1.6,3.6,3.6v30.1c0,3.3,2.7,5.9,5.9,5.9c3.3,0,5.9-2.7,5.9-5.9V76.6c0-2.1,1.7-3.7,3.7-3.7
		s3.7,1.7,3.7,3.7v47.1c0,3.3,2.7,5.9,5.9,5.9s5.9-2.7,5.9-5.9V56.1c0-2.1,1.7-3.7,3.7-3.7s3.7,1.7,3.7,3.7v88.1
		c0,3.3,2.7,5.9,5.9,5.9c3.3,0,5.9-2.7,5.9-5.9V71c0-2,1.6-3.6,3.6-3.6s3.6,1.6,3.6,3.6v57.2c0,3.3,2.7,5.9,5.9,5.9
		c3.3,0,5.9-2.7,5.9-5.9V92.3c0-2,1.6-3.6,3.6-3.6s3.6,1.6,3.6,3.6v57.6c0,3.3,2.7,5.9,5.9,5.9c3.3,0,5.9-2.7,5.9-5.9V50.3
		c0-2.1,1.7-3.7,3.7-3.7c2.1,0,3.7,1.7,3.7,3.7v73.4c0,3.3,2.7,5.9,5.9,5.9c3.3,0,5.9-2.7,5.9-5.9V76.6c0-2.1,1.7-3.7,3.7-3.7
		c2.1,0,3.7,1.7,3.7,3.7v37.1c0,3.3,2.7,5.9,5.9,5.9c3.3,0,5.9-2.7,5.9-5.9V83.6c0-2,1.6-3.6,3.6-3.6s3.6,1.6,3.6,3.6v49.9
		c0,3.3,2.7,5.9,5.9,5.9s5.9-2.7,5.9-5.9v-8.5C380.4,124.3,379.9,123.8,379.3,123.8z"/>
</g>
</svg>
