<?xml version="1.0" encoding="UTF-8" standalone="no"?>
<!-- Created with Inkscape (http://www.inkscape.org/) -->

<svg
   width="450mm"
   height="80mm"
   viewBox="0 0 450 80"
   version="1.1"
   id="svg697"
   inkscape:version="1.1.1 (eb90963e84, 2021-10-02)"
   sodipodi:docname="catotron.svg"
   xmlns:inkscape="http://www.inkscape.org/namespaces/inkscape"
   xmlns:sodipodi="http://sodipodi.sourceforge.net/DTD/sodipodi-0.dtd"
   xmlns="http://www.w3.org/2000/svg"
   xmlns:svg="http://www.w3.org/2000/svg">
  <sodipodi:namedview
     id="namedview699"
     pagecolor="#505050"
     bordercolor="#eeeeee"
     borderopacity="1"
     inkscape:pageshadow="0"
     inkscape:pageopacity="0"
     inkscape:pagecheckerboard="0"
     inkscape:document-units="mm"
     showgrid="false"
     width="500mm"
     inkscape:zoom="0.37593996"
     inkscape:cx="817.94977"
     inkscape:cy="450.86987"
     inkscape:window-width="1920"
     inkscape:window-height="1016"
     inkscape:window-x="0"
     inkscape:window-y="27"
     inkscape:window-maximized="1"
     inkscape:current-layer="g944" />
  <defs
     id="defs694" />
  <g
     inkscape:label="Layer 1"
     inkscape:groupmode="layer"
     id="layer1">
    <g
       id="g944"
       style="fill:#ffffff"
       transform="matrix(2.0054016,0,0,2.0054016,-1041.5161,-248.15587)">
      <path
         class="st0"
         d="m 550.1,152 -5.5,-4.2 c -1.4,1.9 -3.7,3.1 -6.3,3.1 -4.4,0 -7.9,-3.6 -7.9,-7.9 0,-4.3 3.6,-7.9 7.9,-7.9 2.6,0 4.8,1.2 6.3,3.1 l 5.5,-4.2 c -2.7,-3.6 -7,-5.8 -11.8,-5.8 -8.2,0 -14.9,6.7 -14.9,14.9 0,8.2 6.6,14.9 14.9,14.9 4.8,-0.1 9.1,-2.4 11.8,-6 z"
         id="path106"
         style="fill:#ffffff" />
      <path
         class="st0"
         d="m 550.8,157.4 h 27.8 l -13.9,-29.8 z m 10.1,-5.8 3.8,-8.1 3.8,8.1 z"
         id="path108"
         style="fill:#ffffff" />
      <polygon
         class="st0"
         points="582.8,134.8 582.8,157.4 590.5,157.4 590.5,134.8 598,134.8 598,128.6 575.4,128.6 575.4,134.8 "
         id="polygon110"
         style="fill:#ffffff" />
      <path
         class="st0"
         d="m 613.6,157.9 c 8.2,0 14.9,-6.6 14.9,-14.9 0,-8.2 -6.7,-14.9 -14.9,-14.9 -8.2,0 -14.9,6.7 -14.9,14.9 0.1,8.2 6.7,14.9 14.9,14.9 z m 0,-22.8 c 4.4,0 7.9,3.6 7.9,7.9 0,4.3 -3.6,7.9 -7.9,7.9 -4.3,0 -7.9,-3.6 -7.9,-7.9 0,-4.3 3.6,-7.9 7.9,-7.9 z"
         id="path112"
         style="fill:#ffffff" />
      <polygon
         class="st0"
         points="644.4,157.4 644.4,134.8 651.9,134.8 651.9,128.6 629.3,128.6 629.3,134.8 636.8,134.8 636.8,157.4 "
         id="polygon114"
         style="fill:#ffffff" />
      <path
         class="st0"
         d="m 673.5,146.7 c 4.6,-1.2 6.5,-4 6.5,-8.6 0,-6.7 -4,-9.4 -14.2,-9.4 H 655 v 28.8 h 7.7 v -9.9 h 2.7 l 6.4,9.9 h 8.6 z m -7.6,-5.5 h -3.1 v -6.4 h 3.1 c 4.8,0 6.5,0.8 6.5,3.2 0,2.4 -1.7,3.2 -6.5,3.2 z"
         id="path116"
         style="fill:#ffffff" />
      <path
         class="st0"
         d="m 712.2,143 c 0,-8.2 -6.7,-14.9 -14.9,-14.9 -8.2,0 -14.9,6.7 -14.9,14.9 0,8.2 6.6,14.9 14.9,14.9 8.2,0 14.9,-6.7 14.9,-14.9 z m -14.9,7.9 c -4.4,0 -7.9,-3.6 -7.9,-7.9 0,-4.3 3.6,-7.9 7.9,-7.9 4.3,0 7.9,3.6 7.9,7.9 0,4.3 -3.5,7.9 -7.9,7.9 z"
         id="path118"
         style="fill:#ffffff" />
      <polygon
         class="st0"
         points="731.7,142.7 715.4,127.6 715.4,157.4 723.1,157.4 723.1,143.2 739.4,158.3 739.4,128.6 731.7,128.6 "
         id="polygon120"
         style="fill:#ffffff" />
    </g>
  </g>
</svg>
