<?xml version="1.0" encoding="UTF-8" standalone="no"?>
<!-- Created with Inkscape (http://www.inkscape.org/) -->

<svg
   width="450mm"
   height="100mm"
   viewBox="0 0 450 100"
   version="1.1"
   id="svg697"
   inkscape:version="1.1.1 (eb90963e84, 2021-10-02)"
   sodipodi:docname="catotron-logo-full.svg"
   xmlns:inkscape="http://www.inkscape.org/namespaces/inkscape"
   xmlns:sodipodi="http://sodipodi.sourceforge.net/DTD/sodipodi-0.dtd"
   xmlns="http://www.w3.org/2000/svg"
   xmlns:svg="http://www.w3.org/2000/svg">
  <sodipodi:namedview
     id="namedview699"
     pagecolor="#505050"
     bordercolor="#eeeeee"
     borderopacity="1"
     inkscape:pageshadow="0"
     inkscape:pageopacity="0"
     inkscape:pagecheckerboard="0"
     inkscape:document-units="mm"
     showgrid="false"
     width="500mm"
     inkscape:zoom="0.37593996"
     inkscape:cx="817.94977"
     inkscape:cy="450.86987"
     inkscape:window-width="1920"
     inkscape:window-height="1016"
     inkscape:window-x="0"
     inkscape:window-y="27"
     inkscape:window-maximized="1"
     inkscape:current-layer="g198" />
  <defs
     id="defs694" />
  <g
     inkscape:label="Layer 1"
     inkscape:groupmode="layer"
     id="layer1">
    <g
       id="g198"
       transform="matrix(2.0054016,0,0,2.0054016,-1041.5161,-248.15587)">
      <g
         id="g944"
         style="fill:#ffffff">
        <path
           class="st0"
           d="m 550.1,152 -5.5,-4.2 c -1.4,1.9 -3.7,3.1 -6.3,3.1 -4.4,0 -7.9,-3.6 -7.9,-7.9 0,-4.3 3.6,-7.9 7.9,-7.9 2.6,0 4.8,1.2 6.3,3.1 l 5.5,-4.2 c -2.7,-3.6 -7,-5.8 -11.8,-5.8 -8.2,0 -14.9,6.7 -14.9,14.9 0,8.2 6.6,14.9 14.9,14.9 4.8,-0.1 9.1,-2.4 11.8,-6 z"
           id="path106"
           style="fill:#ffffff" />
        <path
           class="st0"
           d="m 550.8,157.4 h 27.8 l -13.9,-29.8 z m 10.1,-5.8 3.8,-8.1 3.8,8.1 z"
           id="path108"
           style="fill:#ffffff" />
        <polygon
           class="st0"
           points="598,134.8 598,128.6 575.4,128.6 575.4,134.8 582.8,134.8 582.8,157.4 590.5,157.4 590.5,134.8 "
           id="polygon110"
           style="fill:#ffffff" />
        <path
           class="st0"
           d="m 613.6,157.9 c 8.2,0 14.9,-6.6 14.9,-14.9 0,-8.2 -6.7,-14.9 -14.9,-14.9 -8.2,0 -14.9,6.7 -14.9,14.9 0.1,8.2 6.7,14.9 14.9,14.9 z m 0,-22.8 c 4.4,0 7.9,3.6 7.9,7.9 0,4.3 -3.6,7.9 -7.9,7.9 -4.3,0 -7.9,-3.6 -7.9,-7.9 0,-4.3 3.6,-7.9 7.9,-7.9 z"
           id="path112"
           style="fill:#ffffff" />
        <polygon
           class="st0"
           points="629.3,128.6 629.3,134.8 636.8,134.8 636.8,157.4 644.4,157.4 644.4,134.8 651.9,134.8 651.9,128.6 "
           id="polygon114"
           style="fill:#ffffff" />
        <path
           class="st0"
           d="m 673.5,146.7 c 4.6,-1.2 6.5,-4 6.5,-8.6 0,-6.7 -4,-9.4 -14.2,-9.4 H 655 v 28.8 h 7.7 v -9.9 h 2.7 l 6.4,9.9 h 8.6 z m -7.6,-5.5 h -3.1 v -6.4 h 3.1 c 4.8,0 6.5,0.8 6.5,3.2 0,2.4 -1.7,3.2 -6.5,3.2 z"
           id="path116"
           style="fill:#ffffff" />
        <path
           class="st0"
           d="m 712.2,143 c 0,-8.2 -6.7,-14.9 -14.9,-14.9 -8.2,0 -14.9,6.7 -14.9,14.9 0,8.2 6.6,14.9 14.9,14.9 8.2,0 14.9,-6.7 14.9,-14.9 z m -14.9,7.9 c -4.4,0 -7.9,-3.6 -7.9,-7.9 0,-4.3 3.6,-7.9 7.9,-7.9 4.3,0 7.9,3.6 7.9,7.9 0,4.3 -3.5,7.9 -7.9,7.9 z"
           id="path118"
           style="fill:#ffffff" />
        <polygon
           class="st0"
           points="723.1,143.2 739.4,158.3 739.4,128.6 731.7,128.6 731.7,142.7 715.4,127.6 715.4,157.4 723.1,157.4 "
           id="polygon120"
           style="fill:#ffffff" />
        <path
           class="st0"
           d="m 538,167.4 c -0.2,-0.1 -0.5,-0.2 -0.9,-0.3 -0.3,-0.1 -0.5,-0.1 -0.6,-0.2 -0.2,-0.1 -0.3,-0.1 -0.4,-0.2 -0.1,-0.1 -0.2,-0.2 -0.2,-0.3 0,-0.2 0.1,-0.4 0.3,-0.5 0.2,-0.1 0.4,-0.2 0.8,-0.2 0.2,0 0.4,0 0.7,0.1 0.3,0.1 0.5,0.2 0.7,0.3 l 0.3,-0.7 c -0.2,-0.1 -0.5,-0.2 -0.8,-0.3 -0.3,-0.1 -0.6,-0.1 -0.9,-0.1 -0.4,0 -0.8,0.1 -1.1,0.2 -0.3,0.1 -0.5,0.3 -0.7,0.5 -0.2,0.2 -0.2,0.5 -0.2,0.7 0,0.3 0.1,0.6 0.3,0.8 0.2,0.2 0.4,0.3 0.6,0.4 0.2,0.1 0.5,0.2 0.9,0.3 0.3,0.1 0.5,0.1 0.6,0.2 0.1,0.1 0.3,0.1 0.4,0.2 0.1,0.1 0.2,0.2 0.2,0.3 0,0.2 -0.1,0.3 -0.3,0.5 -0.2,0.1 -0.5,0.2 -0.8,0.2 -0.3,0 -0.6,-0.1 -0.9,-0.2 -0.3,-0.1 -0.5,-0.2 -0.7,-0.4 l -0.3,0.7 c 0.2,0.2 0.5,0.3 0.8,0.4 0.3,0.1 0.7,0.2 1.1,0.2 0.4,0 0.8,-0.1 1.1,-0.2 0.3,-0.1 0.5,-0.3 0.7,-0.5 0.1,-0.2 0.2,-0.5 0.2,-0.7 0,-0.3 -0.1,-0.6 -0.3,-0.8 -0.2,-0.2 -0.4,-0.3 -0.6,-0.4 z"
           id="path122"
           style="fill:#ffffff" />
        <rect
           x="540"
           y="165"
           class="st0"
           width="0.89999998"
           height="4.9000001"
           id="rect124"
           style="fill:#ffffff" />
        <polygon
           class="st0"
           points="540.7,164.6 541.9,163.6 540.8,163.6 539.9,164.6 "
           id="polygon126"
           style="fill:#ffffff" />
        <polygon
           class="st0"
           points="547,170 547,165 546,165 546,168.4 543.3,165 542.6,165 542.6,170 543.5,170 543.5,166.6 546.2,170 "
           id="polygon128"
           style="fill:#ffffff" />
        <polygon
           class="st0"
           points="552.1,165.8 552.1,165 547.9,165 547.9,165.8 549.6,165.8 549.6,170 550.5,170 550.5,165.8 "
           id="polygon130"
           style="fill:#ffffff" />
        <polygon
           class="st0"
           points="556.4,167.8 556.4,167.1 554,167.1 554,165.8 556.7,165.8 556.7,165 553.1,165 553.1,170 556.8,170 556.8,169.2 554,169.2 554,167.8 "
           id="polygon132"
           style="fill:#ffffff" />
        <path
           class="st0"
           d="m 560.8,167.4 c -0.2,-0.1 -0.5,-0.2 -0.9,-0.3 -0.3,-0.1 -0.5,-0.1 -0.6,-0.2 -0.2,-0.1 -0.3,-0.1 -0.4,-0.2 -0.1,-0.1 -0.2,-0.2 -0.2,-0.3 0,-0.2 0.1,-0.4 0.3,-0.5 0.2,-0.1 0.4,-0.2 0.8,-0.2 0.2,0 0.4,0 0.7,0.1 0.3,0.1 0.5,0.2 0.7,0.3 l 0.3,-0.7 c -0.2,-0.1 -0.5,-0.2 -0.8,-0.3 -0.3,-0.1 -0.6,-0.1 -0.9,-0.1 -0.4,0 -0.8,0.1 -1.1,0.2 -0.3,0.1 -0.5,0.3 -0.7,0.5 -0.2,0.2 -0.2,0.5 -0.2,0.7 0,0.3 0.1,0.6 0.3,0.8 0.2,0.2 0.4,0.3 0.6,0.4 0.2,0.1 0.5,0.2 0.9,0.3 0.3,0.1 0.5,0.1 0.6,0.2 0.1,0.1 0.3,0.1 0.4,0.2 0.1,0.1 0.2,0.2 0.2,0.3 0,0.2 -0.1,0.3 -0.3,0.5 -0.2,0.1 -0.5,0.2 -0.8,0.2 -0.3,0 -0.6,-0.1 -0.9,-0.2 -0.3,-0.1 -0.5,-0.2 -0.7,-0.4 l -0.3,0.7 c 0.2,0.2 0.5,0.3 0.8,0.4 0.3,0.1 0.7,0.2 1.1,0.2 0.4,0 0.8,-0.1 1.1,-0.2 0.3,-0.1 0.5,-0.3 0.7,-0.5 0.1,-0.2 0.2,-0.5 0.2,-0.7 0,-0.3 -0.1,-0.6 -0.3,-0.8 -0.2,-0.2 -0.4,-0.3 -0.6,-0.4 z"
           id="path134"
           style="fill:#ffffff" />
        <rect
           x="562.79999"
           y="165"
           class="st0"
           width="0.89999998"
           height="4.9000001"
           id="rect136"
           style="fill:#ffffff" />
        <path
           class="st0"
           d="m 571.2,165.3 c -0.4,-0.2 -0.9,-0.3 -1.4,-0.3 h -2.2 v 4.9 h 2.2 c 0.5,0 1,-0.1 1.4,-0.3 0.4,-0.2 0.7,-0.5 1,-0.9 0.2,-0.4 0.3,-0.8 0.3,-1.3 0,-0.5 -0.1,-0.9 -0.3,-1.3 -0.3,-0.3 -0.6,-0.6 -1,-0.8 z m 0.1,3.1 c -0.1,0.3 -0.4,0.5 -0.6,0.6 -0.3,0.1 -0.6,0.2 -1,0.2 h -1.2 v -3.4 h 1.2 c 0.4,0 0.7,0.1 1,0.2 0.3,0.1 0.5,0.3 0.6,0.6 0.1,0.3 0.2,0.6 0.2,0.9 0,0.3 0,0.6 -0.2,0.9 z"
           id="path138"
           style="fill:#ffffff" />
        <polygon
           class="st0"
           points="577,167.8 577,167.1 574.6,167.1 574.6,165.8 577.3,165.8 577.3,165 573.7,165 573.7,170 577.4,170 577.4,169.2 574.6,169.2 574.6,167.8 "
           id="polygon140"
           style="fill:#ffffff" />
        <polygon
           class="st0"
           points="581,165 581,170 584.5,170 584.5,169.2 581.9,169.2 581.9,165 "
           id="polygon142"
           style="fill:#ffffff" />
        <path
           class="st0"
           d="m 587,165 -2.2,4.9 h 0.9 l 0.5,-1.1 h 2.5 l 0.5,1.1 h 1 L 588,165 Z m -0.5,3.1 0.9,-2.2 0.9,2.2 z"
           id="path144"
           style="fill:#ffffff" />
        <path
           class="st0"
           d="m 596.4,165.2 c -0.3,-0.1 -0.7,-0.2 -1.1,-0.2 h -2 v 4.9 h 0.9 v -1.4 h 1.1 c 0.4,0 0.8,-0.1 1.1,-0.2 0.3,-0.1 0.6,-0.3 0.7,-0.6 0.1,-0.3 0.3,-0.6 0.3,-0.9 0,-0.4 -0.1,-0.7 -0.3,-0.9 -0.2,-0.2 -0.3,-0.5 -0.7,-0.7 z m -0.2,2.3 c -0.2,0.2 -0.5,0.3 -0.9,0.3 h -1.1 v -2 h 1.1 c 0.4,0 0.7,0.1 0.9,0.3 0.2,0.2 0.3,0.4 0.3,0.7 0,0.3 -0.1,0.5 -0.3,0.7 z"
           id="path146"
           style="fill:#ffffff" />
        <path
           class="st0"
           d="m 600.2,165 -2.2,5 h 0.9 l 0.5,-1.1 h 2.5 l 0.5,1.1 h 1 l -2.2,-4.9 h -1 z m -0.5,3.1 0.9,-2.2 0.9,2.2 z"
           id="path148"
           style="fill:#ffffff" />
        <path
           class="st0"
           d="m 608.1,167.7 c 0.2,-0.3 0.3,-0.6 0.3,-1 0,-0.4 -0.1,-0.7 -0.3,-0.9 -0.2,-0.2 -0.4,-0.5 -0.7,-0.6 -0.3,-0.1 -0.7,-0.2 -1.1,-0.2 h -2 v 4.9 h 0.9 v -1.4 h 1.1 c 0.1,0 0.1,0 0.2,0 l 1,1.4 h 1 l -1.1,-1.6 c 0.3,-0.1 0.6,-0.3 0.7,-0.6 z m -1.8,0.1 h -1.1 v -2 h 1.1 c 0.4,0 0.7,0.1 0.9,0.3 0.2,0.2 0.3,0.4 0.3,0.7 0,0.3 -0.1,0.6 -0.3,0.7 -0.2,0.2 -0.5,0.3 -0.9,0.3 z"
           id="path150"
           style="fill:#ffffff" />
        <polygon
           class="st0"
           points="609.7,165 609.7,170 613.2,170 613.2,169.2 610.6,169.2 610.6,165 "
           id="polygon152"
           style="fill:#ffffff" />
        <path
           class="st0"
           d="m 615.7,165 -2.2,4.9 h 0.9 l 0.5,-1.1 h 2.5 l 0.5,1.1 h 1 l -2.2,-4.9 z m -0.4,3.1 0.9,-2.2 0.9,2.2 z"
           id="path154"
           style="fill:#ffffff" />
        <path
           class="st0"
           d="m 625.7,165.3 c -0.4,-0.2 -0.9,-0.3 -1.4,-0.3 -0.5,0 -1,0.1 -1.4,0.3 -0.4,0.2 -0.7,0.5 -1,0.9 -0.2,0.4 -0.3,0.8 -0.3,1.3 0,0.5 0.1,0.9 0.3,1.3 0.2,0.4 0.5,0.7 1,0.9 0.4,0.2 0.9,0.3 1.4,0.3 0.5,0 1,-0.1 1.4,-0.3 0.4,-0.2 0.7,-0.5 1,-0.9 0.2,-0.4 0.3,-0.8 0.3,-1.3 0,-0.5 -0.1,-0.9 -0.3,-1.3 -0.3,-0.4 -0.6,-0.7 -1,-0.9 z m 0.1,3.1 c -0.2,0.3 -0.4,0.5 -0.6,0.6 -0.2,0.1 -0.6,0.2 -0.9,0.2 -0.3,0 -0.6,-0.1 -0.9,-0.2 -0.3,-0.1 -0.5,-0.4 -0.6,-0.6 -0.1,-0.2 -0.2,-0.6 -0.2,-0.9 0,-0.3 0.1,-0.6 0.2,-0.9 0.1,-0.3 0.4,-0.5 0.6,-0.6 0.2,-0.1 0.6,-0.2 0.9,-0.2 0.3,0 0.6,0.1 0.9,0.2 0.3,0.1 0.5,0.4 0.6,0.6 0.1,0.2 0.2,0.6 0.2,0.9 0.1,0.3 0,0.6 -0.2,0.9 z"
           id="path156"
           style="fill:#ffffff" />
        <path
           class="st0"
           d="m 631.8,167.4 c 0.2,-0.1 0.4,-0.2 0.5,-0.4 0.1,-0.2 0.2,-0.4 0.2,-0.6 0,-0.4 -0.2,-0.7 -0.5,-0.9 -0.3,-0.2 -0.8,-0.3 -1.3,-0.3 h -2.3 v 4.9 h 2.5 c 0.6,0 1.1,-0.1 1.4,-0.3 0.3,-0.2 0.5,-0.6 0.5,-1 0,-0.3 -0.1,-0.6 -0.2,-0.8 -0.3,-0.4 -0.6,-0.5 -0.8,-0.6 z m -2.6,-1.7 h 1.3 c 0.3,0 0.6,0.1 0.7,0.2 0.2,0.1 0.3,0.3 0.3,0.5 0,0.2 -0.1,0.4 -0.3,0.5 -0.2,0.1 -0.4,0.2 -0.7,0.2 h -1.3 z m 1.5,3.5 h -1.5 v -1.4 h 1.5 c 0.7,0 1.1,0.2 1.1,0.7 0,0.5 -0.4,0.7 -1.1,0.7 z"
           id="path158"
           style="fill:#ffffff" />
        <polygon
           class="st0"
           points="637.2,167.8 637.2,167.1 634.8,167.1 634.8,165.8 637.5,165.8 637.5,165 633.9,165 633.9,170 637.6,170 637.6,169.2 634.8,169.2 634.8,167.8 "
           id="polygon160"
           style="fill:#ffffff" />
        <path
           class="st0"
           d="m 642.8,167.7 c 0.2,-0.3 0.3,-0.6 0.3,-1 0,-0.4 -0.1,-0.7 -0.3,-0.9 -0.2,-0.2 -0.4,-0.5 -0.7,-0.6 -0.3,-0.1 -0.7,-0.2 -1.1,-0.2 h -2 v 4.9 h 0.9 v -1.4 h 1.1 c 0.1,0 0.1,0 0.2,0 l 1,1.4 h 1 l -1.1,-1.6 c 0.3,-0.1 0.5,-0.3 0.7,-0.6 z m -1.9,0.1 h -1.1 v -2 h 1.1 c 0.4,0 0.7,0.1 0.9,0.3 0.2,0.2 0.3,0.4 0.3,0.7 0,0.3 -0.1,0.6 -0.3,0.7 -0.2,0.2 -0.5,0.3 -0.9,0.3 z"
           id="path162"
           style="fill:#ffffff" />
        <polygon
           class="st0"
           points="647.9,165.8 647.9,165 643.7,165 643.7,165.8 645.4,165.8 645.4,170 646.3,170 646.3,165.8 "
           id="polygon164"
           style="fill:#ffffff" />
        <rect
           x="651.09998"
           y="165"
           class="st0"
           width="0.89999998"
           height="4.9000001"
           id="rect166"
           style="fill:#ffffff" />
        <polygon
           class="st0"
           points="655.9,165 655.9,170 659.4,170 659.4,169.2 656.8,169.2 656.8,165 "
           id="polygon168"
           style="fill:#ffffff" />
        <polygon
           class="st0"
           points="660.4,165 660.4,170 663.9,170 663.9,169.2 661.3,169.2 661.3,165 "
           id="polygon170"
           style="fill:#ffffff" />
        <rect
           x="664.90002"
           y="165"
           class="st0"
           width="0.89999998"
           height="4.9000001"
           id="rect172"
           style="fill:#ffffff" />
        <path
           class="st0"
           d="m 670.9,167.8 c 0,1 -0.4,1.5 -1.2,1.5 -0.8,0 -1.3,-0.5 -1.3,-1.5 V 165 h -0.9 v 2.8 c 0,0.7 0.2,1.3 0.6,1.6 0.4,0.4 0.9,0.6 1.6,0.6 0.7,0 1.2,-0.2 1.6,-0.6 0.4,-0.4 0.6,-0.9 0.6,-1.6 V 165 H 671 v 2.8 z"
           id="path174"
           style="fill:#ffffff" />
        <path
           class="st0"
           d="m 677.2,167.7 c 0.2,-0.3 0.3,-0.6 0.3,-1 0,-0.4 -0.1,-0.7 -0.3,-0.9 -0.2,-0.2 -0.4,-0.5 -0.7,-0.6 -0.3,-0.1 -0.7,-0.2 -1.1,-0.2 h -2 v 4.9 h 0.9 v -1.4 h 1.1 c 0.1,0 0.1,0 0.2,0 l 1,1.4 h 1 l -1.1,-1.6 c 0.2,-0.1 0.5,-0.3 0.7,-0.6 z m -1.9,0.1 h -1.1 v -2 h 1.1 c 0.4,0 0.7,0.1 0.9,0.3 0.2,0.2 0.3,0.4 0.3,0.7 0,0.3 -0.1,0.6 -0.3,0.7 -0.2,0.2 -0.5,0.3 -0.9,0.3 z"
           id="path176"
           style="fill:#ffffff" />
        <polygon
           class="st0"
           points="682.1,167.8 682.1,167.1 679.7,167.1 679.7,165.8 682.4,165.8 682.4,165 678.8,165 678.8,170 682.5,170 682.5,169.2 679.7,169.2 679.7,167.8 "
           id="polygon178"
           style="fill:#ffffff" />
        <polygon
           class="st0"
           points="689.3,167.8 689.3,167.1 686.9,167.1 686.9,165.8 689.6,165.8 689.6,165 686,165 686,170 689.7,170 689.7,169.2 686.9,169.2 686.9,167.8 "
           id="polygon180"
           style="fill:#ffffff" />
        <polygon
           class="st0"
           points="695.4,170 695.4,165 694.5,165 694.5,168.4 691.8,165 691,165 691,170 691.9,170 691.9,166.6 694.7,170 "
           id="polygon182"
           style="fill:#ffffff" />
        <path
           class="st0"
           d="m 700.7,166 c 0.3,-0.1 0.6,-0.2 0.9,-0.2 0.5,0 1,0.2 1.3,0.6 l 0.6,-0.6 c -0.2,-0.3 -0.5,-0.5 -0.8,-0.6 -0.3,-0.1 -0.7,-0.2 -1.1,-0.2 -0.5,0 -1,0.1 -1.4,0.3 -0.4,0.2 -0.7,0.5 -1,0.9 -0.2,0.4 -0.3,0.8 -0.3,1.3 0,0.5 0.1,0.9 0.3,1.3 0.2,0.4 0.5,0.7 0.9,0.9 0.4,0.2 0.9,0.3 1.4,0.3 0.4,0 0.8,-0.1 1.1,-0.2 0.3,-0.1 0.6,-0.3 0.9,-0.6 l -0.6,-0.6 c -0.4,0.4 -0.8,0.6 -1.3,0.6 -0.3,0 -0.6,-0.1 -0.9,-0.2 -0.3,-0.1 -0.5,-0.4 -0.6,-0.6 -0.2,-0.3 -0.2,-0.6 -0.2,-0.9 0,-0.3 0.1,-0.6 0.2,-0.9 0.1,-0.3 0.3,-0.5 0.6,-0.6 z"
           id="path184"
           style="fill:#ffffff" />
        <path
           class="st0"
           d="m 706.2,165 -2.2,5 h 0.9 l 0.5,-1.1 h 2.5 l 0.5,1.1 h 1 l -2.2,-4.9 h -1 z m -0.5,3.1 0.9,-2.2 0.9,2.2 z"
           id="path186"
           style="fill:#ffffff" />
        <polygon
           class="st0"
           points="713.8,165.8 713.8,165 709.6,165 709.6,165.8 711.3,165.8 711.3,170 712.2,170 712.2,165.8 "
           id="polygon188"
           style="fill:#ffffff" />
        <path
           class="st0"
           d="m 716.3,165 -2.2,4.9 h 0.9 l 0.5,-1.1 h 2.5 l 0.5,1.1 h 1 l -2.2,-4.9 z m -0.5,3.1 0.9,-2.2 0.9,2.2 z"
           id="path190"
           style="fill:#ffffff" />
        <polygon
           class="st0"
           points="720.4,165 720.4,170 723.9,170 723.9,169.2 721.3,169.2 721.3,165 "
           id="polygon192"
           style="fill:#ffffff" />
        <polygon
           class="st0"
           points="726.5,163.6 725.5,163.6 726.7,164.6 727.4,164.6 "
           id="polygon194"
           style="fill:#ffffff" />
        <path
           class="st0"
           d="m 726.4,165 -2.2,4.9 h 0.9 l 0.5,-1.1 h 2.5 l 0.5,1.1 h 1 l -2.2,-4.9 z m -0.5,3.1 0.9,-2.2 0.9,2.2 z"
           id="path196"
           style="fill:#ffffff" />
      </g>
    </g>
  </g>
</svg>
