<?xml version="1.0" encoding="UTF-8" standalone="no"?>
<!-- Generator: Adobe Illustrator 24.0.2, SVG Export Plug-In . SVG Version: 6.00 Build 0)  -->

<svg
   version="1.1"
   x="0px"
   y="0px"
   viewBox="0 0 150 127.9"
   xml:space="preserve"
   id="svg118"
   sodipodi:docname="car02.svg"
   width="150"
   height="127.9"
   inkscape:version="1.1.1 (eb90963e84, 2021-10-02)"
   xmlns:inkscape="http://www.inkscape.org/namespaces/inkscape"
   xmlns:sodipodi="http://sodipodi.sourceforge.net/DTD/sodipodi-0.dtd"
   xmlns="http://www.w3.org/2000/svg"
   xmlns:svg="http://www.w3.org/2000/svg"><defs
   id="defs122">
	
	
	
</defs><sodipodi:namedview
   id="namedview120"
   pagecolor="#505050"
   bordercolor="#eeeeee"
   borderopacity="1"
   inkscape:pageshadow="0"
   inkscape:pageopacity="0"
   inkscape:pagecheckerboard="0"
   showgrid="false"
   inkscape:zoom="2.4832963"
   inkscape:cx="181.81479"
   inkscape:cy="72.685649"
   inkscape:window-width="1920"
   inkscape:window-height="1016"
   inkscape:window-x="0"
   inkscape:window-y="27"
   inkscape:window-maximized="1"
   inkscape:current-layer="svg118" />
<style
   type="text/css"
   id="style2">
	.st0{fill:#FD4776;}
	.st1{fill:#26FEFB;}
	.st2{fill:#FFFFFF;}
</style>
<g
   id="g64"
   transform="translate(-196)">
		<path
   class="st0"
   d="m 286.5,50.4 c -3.1,0.1 -5.9,1.3 -7.8,3.4 -2,2.1 -2.9,5 -2.8,8.1 0.2,2.8 0.2,5.9 0,8.9 -0.1,1.2 0.1,1.9 0.5,2.3 0.4,0.4 1,0.6 1.9,0.6 H 289 c 1,0 1.8,-0.8 1.8,-1.8 0,-0.5 -0.2,-0.9 -0.5,-1.3 -0.3,-0.3 -0.8,-0.5 -1.3,-0.5 h -1.6 c -2.2,0 -5.5,0 -6.8,0 0,0 0,0 0,0 -0.3,0 -0.6,0 -0.8,-0.2 -0.2,-0.2 -0.2,-0.5 -0.2,-0.8 0,-1.6 0,-3.3 0,-5 v -0.5 c 0,-0.8 0,-1.7 0,-2.5 0,-4.1 2.6,-6.8 6.6,-7 0.2,0 0.4,0 0.7,-0.1 0.5,-0.1 1,-0.2 1.4,0 0.4,0.2 0.5,0.6 0.7,1.1 0.1,0.2 0.1,0.5 0.2,0.7 2.6,4.9 6.6,7.3 11.9,7.2 5.5,-0.1 9.5,-2.9 11.7,-8.3 0.3,-0.7 0.6,-0.9 1.3,-0.8 0.4,0.1 0.7,0.1 1.2,0.1 0.4,0 0.9,0.1 1.3,0.1 3.2,0.6 5.3,3.2 5.4,6.5 0,1.5 0,3.1 0,4.6 0,1.3 0,2.6 0,3.9 0,0.3 -0.1,0.5 -0.2,0.6 -0.2,0.2 -0.4,0.2 -0.7,0.2 h -13.7 -9.5 c -1,0 -1.8,0.8 -1.8,1.8 0,1 0.8,1.8 1.8,1.8 8.4,0 16.8,0 25.3,0 1.2,0 1.9,-0.4 2.4,-1.3 V 59.3 l -0.2,-0.6 c -0.3,-1.1 -0.5,-2.1 -1.1,-3.1 -2,-3.4 -5,-5.2 -9.2,-5.4 -3.6,-0.2 -6.6,-2.7 -7.4,-6.2 -0.1,-0.6 -0.1,-1 0.5,-1.4 1,-0.8 1.9,-1.8 2.9,-3.2 0.7,-1.1 1.3,-2.3 1.8,-3.3 l 0.1,-0.1 0.1,0.1 c 0.1,0.1 0.2,0.2 0.2,0.2 v 0 c 0.2,0.2 0.3,0.4 0.5,0.5 0.9,0.7 1.9,0.4 2.7,-0.7 2.4,-3.3 3.7,-7.6 3.5,-12 -0.2,-4.5 -1.7,-8.6 -4.4,-11.7 -2.6,-3 -5.7,-4.7 -9.5,-5.1 -0.2,0 -0.5,0 -0.7,0 -0.5,0 -0.9,0 -1.4,-0.2 -6.1,-2.5 -12.8,-0.6 -17.1,4.7 -3.8,4.8 -5.3,10.3 -4.5,16.9 0.3,2.2 0.9,4.3 1.8,6.3 0.3,0.7 0.9,1.1 1.5,1.2 0.6,0 1.3,-0.3 1.7,-0.9 l 0.5,-0.7 0.1,0.1 c 0,0 0.1,0.1 0.1,0.1 0,0 0.1,0 0.1,0.1 0.1,0.2 0.2,0.5 0.3,0.7 1.2,3.1 2.8,5.4 4.9,7 0.7,0.5 0.7,1 0.5,1.7 -1,3.5 -4,6 -7.4,6.1 z m 17.3,-28.9 c -0.1,0.2 -0.2,0.4 -0.2,0.6 -0.1,0.3 -0.2,0.5 -0.4,0.8 -1,2.1 -2.7,3.2 -4.9,3.2 -0.1,0 -0.3,0 -0.4,0 -4.5,0 -8.2,1.5 -11.4,4.5 l -0.1,0.1 V 30.6 C 286.1,29.8 286,29 285.9,28.3 v -0.1 c -0.6,-5.5 0.6,-10 3.7,-13.9 2.4,-3 5.6,-4.6 8.9,-4.6 1.6,0 3.2,0.4 4.7,1.1 0.4,0.2 0.7,0.2 1.2,0.2 3.4,-0.2 6.3,1.1 8.5,3.9 3.3,4.1 4.3,9.1 2.8,14.7 0,0.1 0,0.1 -0.1,0.2 0,0 -0.1,0.1 -0.1,0.2 l -0.1,0.1 -0.1,-0.1 c -1.3,-3.1 -3,-5.5 -5.4,-7.4 -1.1,-0.9 -2.3,-1.6 -3.5,-2.1 -1.1,-0.6 -2,-0.2 -2.6,1 z m -12.2,9.7 c 1.8,-1 3.8,-1.5 6.3,-1.5 0,0 0,0 0,0 3.1,0 5.6,-1.2 7.4,-3.5 0.2,-0.2 0.3,-0.4 0.5,-0.7 0.3,-0.5 0.5,-0.7 0.7,-0.8 0.2,0 0.4,0.1 0.9,0.5 3.4,2.5 3.8,3.9 2.6,7.9 -1.1,3.7 -3,6.3 -5.7,7.9 -1.2,0.7 -2.4,1 -3.8,1 -2.5,-0.1 -4.6,-1.2 -6.6,-3.6 -1.3,-1.6 -2.2,-3.5 -2.9,-6 -0.1,-0.7 0.3,-1 0.6,-1.2 z m 0.4,22.2 c -0.2,-0.6 -0.1,-0.9 0.4,-1.3 2.3,-1.5 3.9,-3.6 4.7,-6.3 0.1,-0.4 0.3,-0.7 0.7,-0.7 0.1,0 0.2,0 0.4,0.1 1.6,0.4 3.3,0.4 5,0 0.6,-0.1 0.8,-0.1 1,0.5 0.8,2.7 2.4,4.9 4.8,6.4 0.6,0.4 0.5,0.7 0.3,1.2 -1.3,3.6 -4.8,6.1 -8.8,6.1 -3.7,-0.1 -7.2,-2.5 -8.5,-6 z"
   id="path36" />
		<path
   class="st1"
   d="m 321.9,93 c 0,3.1 0,6.2 0,9.4 0,0.5 0.2,1 0.5,1.3 0.4,0.4 0.8,0.5 1.3,0.5 1,0 1.9,-0.8 1.9,-1.9 0,-3.3 0,-7.8 0,-10.2 0,-5.8 -5.1,-10.6 -11.4,-10.6 -2.5,0 -4.9,0 -7.4,0 h -3.3 c -1.3,0 -2.6,0 -3.9,0 h -1 c -3.7,0 -7.6,0 -11.4,0 -4.6,0 -7.9,2.1 -9.9,6 -0.3,0.6 -0.8,0.9 -1.5,0.9 0,0 0,0 0,0 -1.1,0 -2.3,0 -3.4,0 H 272 c -1.1,0 -2.3,0 -3.5,0 -1.3,0 -2,0.3 -2.3,1.2 -0.3,0.8 -0.1,1.5 0.8,2.5 1,1 1.9,1.9 2.9,2.9 1.5,1.5 3.2,3.2 4.8,4.8 0.9,0.9 1.3,1.8 1.2,3.1 -0.1,2.2 0,4.5 0,6.6 v 1.9 c 0,3.9 1.5,6.9 4.4,9.1 1.4,1.1 3.1,1.6 4.9,2.1 h 0.1 30.9 v 0 c 0.2,-0.1 0.5,-0.2 0.7,-0.2 1.5,-0.5 2.8,-0.9 4,-1.8 3.9,-3 4.5,-7.1 4.5,-11.1 0,-0.4 -0.4,-0.8 -0.8,-0.8 h -0.4 c -1.4,0 -2.5,1.1 -2.5,2.6 0,2.4 -0.7,4.4 -2.1,5.7 -1.3,1.3 -3.3,2 -5.6,2 -0.1,0 -0.3,0 -0.4,0 -7.5,-0.2 -15.6,-0.2 -26.1,0 -0.1,0 -0.2,0 -0.3,0 -2.3,0 -4.2,-0.7 -5.5,-2 -1.4,-1.3 -2.1,-3.3 -2.1,-5.6 0,-2.8 -0.1,-6.5 0,-10.1 0,-1.3 -0.3,-2.2 -1.2,-3 -1.3,-1.2 -2.6,-2.5 -3.8,-3.7 -0.6,-0.6 -1.1,-1.1 -1.7,-1.7 l -0.6,-0.6 h 2.5 c 1,0 1.9,0 2.7,0 1.4,0 1.9,-0.3 2.4,-1.7 1.3,-3.6 3.6,-5.2 7.4,-5.2 8.9,0 17.8,0 26.7,0 4.9,-0.1 7.9,2.8 7.9,7.6 z"
   id="path38" />
		<path
   class="st1"
   d="m 267.5,41.2 c 1.2,0 2.3,0 3.5,0 h 0.1 c 1.1,0 2.2,0 3.3,0 0,0 0.1,0 0.1,0 1.3,0 2,-0.3 2.3,-1.2 0.3,-0.8 0.1,-1.5 -0.8,-2.5 -1.3,-1.3 -2.6,-2.6 -3.9,-3.9 l -0.2,-0.2 c -1.4,-1.4 -2.8,-2.8 -4.1,-4.1 -0.5,-0.5 -0.8,-1.1 -0.8,-1.8 0,-3.6 0,-6.5 0,-9.3 C 267,11.6 262.3,7 255.7,7 253,7 250.2,7 247.5,7 h -5.2 c -0.8,0 -1.1,0 -1.4,0 h -1.3 c -0.5,0 -1,0.2 -1.3,0.5 -0.3,0.4 -0.5,0.8 -0.5,1.3 0,0.5 0.2,1 0.5,1.3 0.3,0.3 0.8,0.5 1.3,0.5 h 1 c 5.3,0 9.5,0 14.9,0 4.8,0 7.7,3 7.8,7.7 0,3.3 0,6.7 0,10.1 0,1.2 0.3,2 1.1,2.8 1.3,1.2 2.5,2.5 3.8,3.8 l 0.1,0.1 c 0.5,0.5 1,1.1 1.6,1.6 l 0.6,0.6 h -2.4 c -1,0 -1.9,0 -2.8,0 -1.4,0 -1.9,0.3 -2.4,1.7 -1.3,3.6 -3.6,5.2 -7.4,5.2 -8.9,0 -17.8,0 -26.7,0 -4.3,0 -7.7,-3.5 -7.7,-7.7 0,-6.1 0,-12.2 0,-18.3 0,-4.8 3,-7.7 7.7,-7.7 h 1.9 c 0.5,0 1,-0.2 1.3,-0.5 0.3,-0.4 0.5,-0.8 0.5,-1.3 0,-0.5 -0.2,-1 -0.5,-1.3 -0.3,-0.3 -0.8,-0.5 -1.3,-0.5 -1,0 -1.9,0 -2.9,0 -5.6,0.1 -10.3,4.7 -10.4,10.1 -0.1,6.9 -0.1,13.9 0,20.8 0.1,5.5 4.7,10 10.2,10.1 4.7,0.1 9.5,0.1 14.3,0.1 4.9,0 9.8,0 14.6,-0.1 4.1,-0.1 7.2,-2.1 9.2,-5.9 0.5,-0.6 0.9,-0.8 1.8,-0.8 0,0 0,0 0,0 z"
   id="path40" />
		<path
   class="st2"
   d="m 256.3,99.9 c -3.7,-0.1 -7,-2.9 -7.6,-6.5 -0.1,-0.3 -0.1,-0.7 0.3,-1 3.1,-2.5 5.1,-5.9 6.1,-10.4 0,-0.2 0.1,-0.4 0.1,-0.6 v -0.1 c 0.1,-0.4 0.1,-0.9 0.3,-1.3 2.2,-4.8 2,-9.6 -0.5,-14.3 -2.4,-4.5 -7,-7.4 -12,-7.4 -1,0 -1.9,0.1 -2.9,0.3 -0.5,0.1 -1,0.3 -1.5,0.5 -0.6,0.2 -1.2,0.5 -1.8,0.6 -2.7,0.4 -5,1.6 -6.7,3.7 -3.1,3.7 -4.1,8.1 -3.1,13.4 0.1,0.7 0.4,1.4 0.7,2 0.3,0.7 0.5,1.3 0.7,2 0.9,5 2.9,8.7 6.1,11.3 0.5,0.4 0.7,0.8 0.5,1.5 -0.9,3.6 -4,6.1 -7.6,6.2 -6,0.2 -10.3,4.6 -10.3,10.6 0,2.6 0,5.2 0,7.8 v 2.4 c 0,1.8 0.6,2.4 2.4,2.4 h 11.4 7.8 c 5,0 11.3,0 15.6,0 0.3,0 0.7,0 1,-0.1 0.8,-0.1 1.5,-0.9 1.5,-1.7 0,-0.8 -0.5,-1.5 -1.3,-1.8 -0.3,-0.1 -0.7,-0.1 -1,-0.1 h -0.2 -3.4 c -8,0 -20.1,0 -29.2,0 -0.3,0 -0.6,0 -0.8,-0.2 -0.2,-0.2 -0.2,-0.5 -0.2,-0.8 0,-1.7 0,-3.5 0,-5.2 v -2.6 c 0,-4.3 2.5,-6.9 6.8,-7.3 h 0.3 c 0.9,-0.1 1.9,-0.1 2.8,-0.5 0.8,-0.3 1.1,0 1.5,0.5 2.7,4 5.4,7.8 8.2,11.8 0.5,0.7 1.1,1.1 1.7,1.1 0.6,0 1.2,-0.4 1.6,-1 0.3,-0.4 0.5,-0.8 0.8,-1.1 l 2.9,-4.2 c 1.5,-2.2 3.1,-4.4 4.6,-6.7 0,0 0.1,-0.1 0.1,-0.2 0.2,-0.3 0.3,-0.5 0.8,-0.3 1.3,0.5 2.6,0.6 3.9,0.7 h 0.4 c 1.1,0.1 2.1,0.5 3.1,1.2 0.5,0.4 1,0.9 1.4,1.4 0.1,0.1 0.2,0.3 0.3,0.4 0.4,0.5 1.1,0.7 1.7,0.6 0.6,-0.1 1.1,-0.5 1.3,-1.2 0.3,-0.7 0.1,-1.3 -0.4,-2 -2,-2.4 -4.7,-3.7 -8.2,-3.8 z M 232,80.4 c -0.1,-0.6 0,-1.1 0.4,-1.5 1.2,-1.2 2.2,-2.5 3,-4.1 0.1,-0.2 0.2,-0.5 0.5,-0.5 0.2,0 0.4,0 0.7,0.2 0.8,0.5 1.8,0.8 3,0.8 1.9,0 3.7,0 5.6,0 1.2,0 2.5,0 3.7,0 0.4,0 0.9,0 1.4,0.2 1.3,0.4 1.9,1.3 1.8,2.8 -0.3,3.9 -1.5,7.2 -3.6,9.8 -1.6,2 -3.7,3.1 -5.8,3.3 -2,0.2 -4,-0.5 -5.8,-1.9 -1.3,-1.1 -2.4,-2.5 -3.2,-4.2 v 0 c -0.8,-1.5 -1.3,-3.1 -1.7,-4.9 z m 11.4,-8.7 h -0.1 c -1.2,0 -2.3,0 -3.5,0 0,0 0,0 0,0 -1.2,0 -2,-0.5 -2.5,-1.5 -0.4,-0.9 -1.2,-1.3 -2.1,-1.3 -1,0.1 -1.6,0.7 -1.9,1.7 -0.5,1.8 -1.3,3.4 -2.6,4.9 l -0.1,0.1 v -0.2 c -0.5,-3.8 0.1,-6.8 2,-9.3 1.2,-1.6 2.8,-2.6 4.6,-2.8 1,-0.1 1.8,-0.5 2.6,-0.8 1.1,-0.5 2.3,-0.7 3.4,-0.7 3.7,0 7.2,2.2 9.1,5.9 0.8,1.6 1.2,3.2 1.3,5.1 V 73 l -0.1,-0.1 c -1.7,-1.3 -3.6,-1.4 -5.5,-1.3 -1.6,0.1 -3.1,0.1 -4.6,0.1 z m -8.4,28.8 c 1.7,-1.5 2.8,-3.3 3.4,-5.5 0.1,-0.2 0.2,-0.5 0.5,-0.5 0.1,0 0.1,0 0.2,0 1.8,0.5 3.7,0.5 5.5,0 0.5,-0.1 0.6,0.1 0.8,0.5 0.6,2.1 1.7,3.9 3.3,5.3 0.3,0.3 0.4,0.5 0.1,0.9 -1.7,2.5 -3.4,4.9 -5.2,7.5 l -1.7,2.5 -1.6,-2.3 c -1.8,-2.7 -3.6,-5.2 -5.4,-7.8 -0.2,-0.1 -0.1,-0.3 0.1,-0.6 z"
   id="path42" />
		<path
   class="st1"
   d="m 250.8,26 c -0.1,0 -0.2,0 -0.3,0 h -0.1 -18.5 c -0.3,0 -0.7,0 -1,0.1 -0.6,0.2 -1,0.7 -1,1.3 -0.1,0.6 0.2,1.1 0.7,1.5 0.4,0.3 0.8,0.3 1.2,0.3 0,0 0,0 0,0 h 5.8 7.1 c 0.8,0 1.8,0 2.7,0 1.3,0 2.6,0 3.2,0 1,0 1.7,-0.7 1.7,-1.6 0.1,-0.9 -0.6,-1.5 -1.5,-1.6 z"
   id="path44" />
		<path
   class="st1"
   d="m 250.6,32.2 c -2,0 -5.6,0 -8.4,0 H 237 c -1.8,0 -3.5,0 -5.3,0 0,0 0,0 0,0 -0.9,0 -1.4,0.3 -1.7,1 -0.2,0.5 -0.2,1 0.1,1.5 0.3,0.5 0.9,0.8 1.6,0.8 1,0 1.9,0 2.9,0 0.6,0 1.3,0 1.9,0 h 4.7 c 3.1,0 6.9,0 9.2,0 0,0 0,0 0,0 0.6,0 1.4,-0.1 1.8,-1 0.2,-0.5 0.2,-1 -0.1,-1.5 -0.2,-0.5 -0.8,-0.8 -1.5,-0.8 z"
   id="path46" />
		<path
   class="st1"
   d="m 237.6,23 c 1.7,0 4,0 6.4,0 2.4,0 4.8,0 6.4,0 0.6,0 1.2,-0.2 1.5,-0.5 0.3,-0.3 0.4,-0.7 0.4,-1.1 0,-1 -0.8,-1.6 -1.9,-1.6 -1.2,0 -4.2,0 -6.3,0 h -1.6 -1.4 c -1.2,0 -2.4,0 -3.6,0 -0.6,0 -1.2,0.2 -1.5,0.6 -0.3,0.3 -0.4,0.7 -0.4,1.1 0.1,0.9 0.9,1.5 2,1.5 z"
   id="path48" />
		<path
   class="st1"
   d="m 231.5,19.8 c 0,0 0,0 0,0 -0.4,0 -0.8,0.2 -1.1,0.5 -0.3,0.3 -0.5,0.7 -0.5,1.1 0,0.4 0.2,0.8 0.5,1.1 0.3,0.3 0.7,0.5 1.1,0.5 0,0 0,0 0,0 0.9,0 1.6,-0.7 1.6,-1.6 0,-0.4 -0.2,-0.8 -0.5,-1.1 -0.3,-0.3 -0.7,-0.5 -1.1,-0.5 z"
   id="path50" />
		<path
   class="st1"
   d="m 304,90.9 c -0.6,-0.1 -1.1,0.2 -1.5,0.7 -0.3,0.4 -0.3,0.8 -0.3,1.3 v 13 c 0,2 0,4.7 0,5.8 0,1 0.7,1.7 1.6,1.7 0,0 0,0 0,0 0.9,0 1.5,-0.7 1.6,-1.6 0,-0.1 0,-0.2 0,-0.3 V 92.9 c 0,-0.3 0,-0.6 -0.1,-1 -0.2,-0.6 -0.6,-1 -1.3,-1 z"
   id="path52" />
		<path
   class="st1"
   d="m 290.9,110.3 c 0.2,0.1 0.4,0.1 0.7,0.1 0.3,0 0.5,-0.1 0.8,-0.2 0.5,-0.3 0.8,-0.9 0.8,-1.6 0,-1.4 0,-1.7 0,-2.2 0,-0.3 0,-0.8 0,-1.6 v -2.5 c 0,-2.2 0,-4.4 0,-6.6 0,-0.6 -0.1,-1.4 -1,-1.8 -0.5,-0.2 -1,-0.2 -1.5,0.1 -0.5,0.3 -0.8,0.9 -0.8,1.6 0,1.9 0,3.8 0,5.7 v 4.2 c 0,0.9 0,1.3 0,3 0,0.9 0.3,1.5 1,1.8 z"
   id="path54" />
		<path
   class="st1"
   d="m 311.7,95.7 c 0,-0.6 -0.2,-1.2 -0.6,-1.5 -0.3,-0.3 -0.7,-0.4 -1.1,-0.4 -1,0 -1.6,0.8 -1.6,1.9 0,3.3 0,9.6 0,12.9 0,0.6 0.2,1.2 0.5,1.5 0.3,0.3 0.6,0.4 1.1,0.4 0,0 0,0 0,0 1,0 1.6,-0.8 1.6,-1.9 0,-1.2 0,-4.1 0,-6.2 v -3.2 c 0.1,-1.2 0.1,-2.4 0.1,-3.5 z"
   id="path56" />
		<path
   class="st1"
   d="m 296.1,104.2 c 0,0.7 0,0.8 0,0.8 0,0 0,0 0,0.1 v 0.7 c 0,1 0.7,1.7 1.6,1.7 0,0 0,0 0,0 0.9,0 1.5,-0.7 1.6,-1.6 0,-0.1 0,-0.2 0,-0.3 v -6.8 c 0,-0.3 0,-0.6 -0.1,-1 -0.2,-0.6 -0.7,-1 -1.3,-1 -0.6,-0.1 -1.1,0.2 -1.5,0.7 -0.3,0.4 -0.3,0.8 -0.3,1.3 0,0.4 0,0.6 0,0.8 v 0.3 0 c 0,0.2 0,0.4 0,0.8 z"
   id="path58" />
		<path
   class="st2"
   d="m 340.5,38.6 c -0.3,0 -0.6,0 -0.9,0 h -0.4 c -1.5,0 -1.5,0 -1.5,-1.5 v -0.4 c 0,-0.3 0,-0.6 0,-0.8 -0.1,-1.2 -0.9,-2 -2,-2 0,0 0,0 0,0 -1.1,0 -1.9,0.8 -2,2 0,0.8 0,1.6 0,2.4 0,0.2 0,0.2 0,0.3 0,0 -0.1,0.1 -0.3,0 -0.8,0 -1.7,0 -2.4,0 -1.2,0 -2.1,0.9 -2.1,2 0,1.1 0.9,2 2.1,2 0.8,0 1.5,0 2.2,0 0.2,0 0.3,0 0.4,0.1 0.1,0.1 0.1,0.2 0.1,0.4 0,0.7 0,1.4 0,2.1 0,1.2 0.8,2.1 2,2.1 0,0 0,0 0,0 1.1,0 2,-0.9 2,-2.2 V 45 c 0,-0.7 0,-1.4 0,-2.1 0,-0.2 0,-0.3 0.1,-0.3 0,0 0.2,-0.1 0.4,-0.1 0.8,0 1.6,0 2.4,0 1.2,-0.1 1.9,-0.8 2,-2 -0.1,-1 -1,-1.8 -2.1,-1.9 z"
   id="path60" />
		<path
   class="st0"
   d="m 211.5,89 c -0.3,0 -0.6,0 -0.8,0 h -0.4 c -1.5,0 -1.5,0 -1.5,-1.5 v -0.4 c 0,-0.3 0,-0.6 0,-0.8 -0.1,-1.2 -0.9,-2 -2,-2 0,0 0,0 0,0 -1.1,0 -1.9,0.8 -2,2 0,0.8 0,1.6 0,2.4 0,0.2 0,0.2 0,0.3 0,0 -0.1,0.1 -0.3,0 -0.8,0 -1.7,0 -2.4,0 -1.2,0 -2.1,0.9 -2.1,2 0,1.1 0.9,2 2.1,2 0.7,0 1.5,0 2.2,0 0.1,0 0.3,0 0.4,0.1 0.1,0.1 0.1,0.2 0.1,0.4 0,0.7 0,1.4 0,2.1 0,1.2 0.8,2.1 2,2.1 0,0 0,0 0,0 1.1,0 2,-0.9 2,-2.2 v -0.2 c 0,-0.7 0,-1.3 0,-2 0,-0.2 0,-0.3 0.1,-0.3 0,0 0.2,-0.1 0.4,-0.1 0.8,0 1.6,0 2.4,0 1.2,-0.1 1.9,-0.8 2,-2 -0.2,-1.1 -1.1,-1.9 -2.2,-1.9 z"
   id="path62" />
	</g>
<g
   id="Capa_2">
</g>
</svg>
