<?xml version="1.0" encoding="UTF-8" standalone="no"?>
<!-- Generator: Adobe Illustrator 24.0.2, SVG Export Plug-In . SVG Version: 6.00 Build 0)  -->

<svg
   version="1.1"
   x="0px"
   y="0px"
   viewBox="0 0 150 127.9"
   xml:space="preserve"
   id="svg118"
   sodipodi:docname="car03.svg"
   width="150"
   height="127.9"
   inkscape:version="1.1.1 (eb90963e84, 2021-10-02)"
   xmlns:inkscape="http://www.inkscape.org/namespaces/inkscape"
   xmlns:sodipodi="http://sodipodi.sourceforge.net/DTD/sodipodi-0.dtd"
   xmlns="http://www.w3.org/2000/svg"
   xmlns:svg="http://www.w3.org/2000/svg"><defs
   id="defs122">
	
	
	
</defs><sodipodi:namedview
   id="namedview120"
   pagecolor="#505050"
   bordercolor="#eeeeee"
   borderopacity="1"
   inkscape:pageshadow="0"
   inkscape:pageopacity="0"
   inkscape:pagecheckerboard="0"
   showgrid="false"
   inkscape:lockguides="false"
   inkscape:zoom="2.4832963"
   inkscape:cx="137.11614"
   inkscape:cy="69.061433"
   inkscape:window-width="1920"
   inkscape:window-height="1016"
   inkscape:window-x="0"
   inkscape:window-y="27"
   inkscape:window-maximized="1"
   inkscape:current-layer="svg118"
   height="127.9px" />
<style
   type="text/css"
   id="style2">
	.st0{fill:#FD4776;}
</style>
<g
   id="g114"
   transform="translate(-388)">
		<path
   class="st0"
   d="m 508.8,101.9 c -0.3,0.3 -0.5,0.8 -0.5,1.2 0,0.5 0.2,0.9 0.5,1.2 0.3,0.3 0.8,0.5 1.2,0.5 0.4,0 0.9,-0.2 1.3,-0.5 1.9,-1.9 3.1,-4.3 3.6,-6.9 0.1,-0.3 0.1,-0.7 0.1,-1 l 0.1,-2.1 V 94 c -0.2,-2.2 -0.9,-4.3 -2.1,-6.2 -0.5,-0.7 -1.1,-1.4 -1.7,-2.1 -0.6,-0.6 -1.4,-0.7 -2,-0.3 -0.6,0.3 -1,1 -0.9,1.8 0.1,0.5 0.3,0.9 0.6,1.1 0.7,0.7 1.2,1.5 1.7,2.3 0.6,1.2 0.9,2.4 1,3.8 0.1,1.5 -0.2,3.1 -0.8,4.5 -0.6,1.1 -1.2,2 -2.1,3 z"
   id="path66" />
		<path
   class="st0"
   d="m 485.3,91.6 v 6.8 c 0,1.6 1.1,2.7 2.7,2.7 1.2,0 2.5,0 3.7,0 l 8.2,6.6 c 0.5,0.4 0.9,0.5 1.2,0.5 0.4,0 0.7,-0.2 0.9,-0.3 0.6,-0.3 0.8,-0.9 0.8,-1.6 V 83.8 c 0,-0.1 0,-0.2 0,-0.4 -0.1,-0.7 -0.5,-1.2 -1.2,-1.5 -0.9,-0.3 -1.6,0.2 -1.8,0.4 l -8.1,6.5 c -1.2,0 -2.5,0 -3.7,0 -1.6,0.1 -2.7,1.2 -2.7,2.8 z m 8.8,-0.2 5.3,-4.2 v 15.6 l -5.3,-4.2 c 0,-2.4 0,-4.8 0,-7.2 z m -5.3,0.9 c 0.6,0 1.2,0 1.8,0 v 3.6 c 0,0.6 0,1.2 0,1.7 -0.3,0 -0.6,0 -0.9,0 -0.3,0 -0.6,0 -0.9,0 0,-1.7 0,-3.5 0,-5.3 z"
   id="path68" />
		<path
   class="st0"
   d="m 504.6,99.4 c -0.3,0.4 -0.5,0.8 -0.5,1.3 0,0.5 0.2,0.9 0.6,1.2 0.3,0.3 0.7,0.4 1.2,0.4 0.5,0 0.9,-0.2 1.3,-0.6 1.8,-1.9 2.7,-4.1 2.8,-6.8 v 0 c 0,-0.8 -0.1,-1.4 -0.2,-2 -0.4,-1.8 -1.2,-3.3 -2.5,-4.7 -0.7,-0.7 -1.8,-0.8 -2.5,-0.2 -0.7,0.7 -0.8,1.7 -0.1,2.5 l 0.2,0.2 c 0.2,0.2 0.3,0.3 0.5,0.5 1.3,1.9 1.5,4 0.6,6.2 -0.4,0.7 -0.8,1.3 -1.4,2 z"
   id="path70" />
		<path
   class="st0"
   d="m 468.2,90.3 c -14.7,0 -29,0 -43.7,0 H 414 c -1.9,0 -2.3,-0.4 -2.3,-2.3 0,-2.6 0,-7 0,-10.3 l 5.5,-9.8 c 0.6,-1.1 0.5,-2.5 -0.2,-3.6 -0.6,-0.8 -1.6,-1.3 -2.6,-1.3 -0.3,0 -0.5,0 -0.8,0.1 l -1.9,0.5 v -8.1 c 0,-11 0,-19.9 0,-32.1 v -0.1 c 0,-0.4 0,-0.7 0.1,-0.8 0.1,-0.1 0.3,-0.2 0.7,-0.2 0,0 0,0 0,0 26.1,0 54.7,0 89.8,0 0.4,0 0.6,0 0.7,0.1 0.1,0.1 0.1,0.3 0.1,0.6 0,7.3 0,17.7 0,25.4 0,3.4 0,6.3 0,8.1 0,1 0.8,1.9 1.9,1.9 1,0 1.9,-0.8 1.9,-1.8 V 51 c 0,-10.1 0,-27 0,-37.9 0,-2.3 -0.6,-4.1 -1.8,-5.3 -1,-1 -2.2,-1.5 -3.6,-1.4 -1.1,0 -2.2,0 -3.2,0 -0.5,0 -1.1,0 -1.6,0 h -75.3 c -0.7,0 -1.4,0 -2.2,0 -1.4,0 -2.8,0 -4.1,0 -1.7,0 -3.4,-0.1 -4.9,1.1 -1.4,1.1 -2.1,2.7 -2.1,4.6 0,1 0,2 0,2.9 0,1 0,2.1 0,3.1 v 46 c 0,0.1 0,0.2 0,0.4 l -9.8,2.4 c -1.2,0.3 -2.1,1.2 -2.4,2.4 -0.3,1.2 0.1,2.4 1,3.2 0.2,0.1 0.2,0.2 0.3,0.3 l 0.4,0.3 0.4,0.3 -0.4,0.3 c -1.3,1 -2.6,2 -3.9,3 -1,0.8 -1.3,1.7 -1.4,2.4 -0.1,0.5 0,1.6 0.8,2.7 0.3,0.4 0.5,0.7 0.8,1 1,1.4 2.4,1.6 2.9,1.6 0.8,0 1.5,-0.3 2.2,-0.8 1.4,-1.1 2.9,-2.2 4.3,-3.3 l 0.5,1.1 c 0.5,1.2 1.6,1.9 2.8,2 0.1,0 0.1,0 0.2,0 0.5,0 1,-0.1 1.4,-0.4 v 6 c 0,0.2 0.1,0.5 0.2,0.7 0,0 0,0 0,0.1 0.7,2.7 2.6,4.2 5.4,4.2 h 6.8 c 5,0 10,0 14.9,0 11,0 21.8,0 33,0 1,0 1.8,-0.8 1.8,-1.8 0,-0.5 -0.2,-1 -0.5,-1.3 -0.6,-0.4 -1.1,-0.6 -1.6,-0.6 z M 411.7,13.9 c 0,-0.6 0,-1.2 0,-1.8 0,-1.6 0.5,-2.1 2.1,-2.1 14.5,0 29.1,0 43.6,0 14.5,0 29.1,0 43.6,0 1.5,0 2,0.5 2,2 0,0.6 0,1.3 0,1.9 0,1.2 0,2.5 0,3.8 0,0.4 0,0.6 -0.1,0.7 -0.1,0.1 -0.3,0.2 -0.7,0.2 0,0 0,0 0,0 -12.3,0 -24.6,0 -36.9,0 h -8 -8.8 c -11.7,0 -23.9,0 -35.8,0 0,0 0,0 0,0 -0.5,0 -0.8,-0.1 -0.9,-0.2 -0.1,-0.1 -0.2,-0.4 -0.2,-0.9 0.2,-1.2 0.1,-2.4 0.1,-3.6 z m -5.2,66.2 c -0.3,-0.8 -0.6,-1.4 -0.9,-2.1 -0.2,-0.5 -0.4,-1.1 -0.7,-1.6 -0.2,-0.5 -0.5,-0.7 -0.9,-0.7 -0.2,0 -0.5,0.1 -0.7,0.3 -2.2,1.7 -4.4,3.3 -6.6,5 -0.1,0.1 -0.2,0.1 -0.2,0.1 -0.1,0 -0.1,-0.1 -0.2,-0.2 -0.3,-0.4 -0.6,-0.8 -0.9,-1.2 -0.1,-0.2 -0.1,-0.3 0.1,-0.4 2.2,-1.7 4.4,-3.3 6.6,-5 0.4,-0.3 0.6,-0.6 0.5,-1.1 -0.1,-0.3 -0.2,-0.5 -0.5,-0.7 -1,-0.8 -2,-1.5 -3,-2.3 0,0 -0.1,-0.1 -0.2,-0.1 5.2,-1.3 10.3,-2.6 15.5,-3.9 -2.6,4.7 -5.2,9.3 -7.9,13.9 z"
   id="path72" />
		<path
   class="st0"
   d="m 523.5,76.8 c -2.9,-3.2 -5.9,-6.8 -9.7,-11.1 -0.6,-0.6 -1.3,-1.3 -2.4,-1.2 h -5 c -2.8,0 -5.6,0 -8.3,0 h -3 -0.2 c -0.2,0 -0.4,0 -0.7,0 -1.1,0.1 -1.7,0.7 -1.8,1.7 -0.1,1 0.5,1.7 1.5,1.9 0.3,0.1 0.6,0.1 0.9,0.1 h 0.2 c 3.6,0 7.1,0 10.7,0 h 2.7 c 1.5,0 1.5,0 1.5,1.5 v 2.7 c 0,1.9 0,3.8 0,5.7 0,1.7 0.6,2.3 2.3,2.3 h 1.4 c 2,0 4.1,0 6.1,0 0.4,0 0.6,0 0.7,0.1 0.1,0.1 0.2,0.3 0.2,0.7 0,10.9 0,22.8 0,36.3 0,0.4 0,0.6 -0.1,0.7 -0.1,0.1 -0.3,0.1 -0.6,0.1 0,0 0,0 0,0 -12.4,0 -25.3,0 -39.6,0 0,0 0,0 0,0 -0.3,0 -0.5,0 -0.6,-0.1 -0.1,-0.1 -0.1,-0.3 -0.1,-0.6 0,-2.8 0,-5.7 0,-8.4 v -3 -7.6 c 0,-9.7 0,-19.7 0,-29.5 0,-0.4 0.1,-0.7 0.2,-0.8 0.1,-0.1 0.4,-0.2 0.8,-0.2 1.5,0.1 3.1,0 4.6,0 h 1.1 c 1.4,0 2.3,-0.7 2.3,-1.9 0,-0.5 -0.2,-0.9 -0.5,-1.2 -0.4,-0.4 -1,-0.6 -1.8,-0.6 -2.4,0 -4.9,0 -7.3,0 h -0.6 c -2,0 -2.5,0.5 -2.5,2.5 v 5.2 c 0,6.6 0,13.5 0,20.2 0,0.1 0,0.2 0,0.4 v 5.1 c 0,0.1 0,0.3 0,0.4 0,1.3 0,2.5 0,3.8 v 8.7 c 0,3 0,5.9 0,8.9 0,0.9 0.1,1.9 1.2,2.5 v 0 h 46 0.1 c 1,-0.7 1.1,-1.7 1.1,-2.6 0,-14.2 0,-27.3 0,-40 0.2,-1.1 -0.1,-1.9 -0.8,-2.7 z m -6,0 c -1.2,0 -2.3,0 -3.5,0 v 0 c 0,0 0,0 0,0 -0.2,0 -0.3,0 -0.3,-0.1 0,0 0,-0.1 0,-0.2 0,-1.4 0,-2.7 0,-4.1 v -1.2 l 4.8,5.5 z"
   id="path74" />
		<path
   class="st0"
   d="m 476.1,41.6 c 0.9,0 1.6,-0.7 1.6,-1.6 0,-0.9 -0.6,-1.6 -1.5,-1.7 -0.3,0 -0.6,0 -0.9,0 -12.5,0 -25.1,0 -37.6,0 -0.4,0 -0.7,0 -1.1,0 -0.9,0.2 -1.4,0.8 -1.3,1.7 0.1,0.9 0.6,1.4 1.5,1.5 0.3,0 0.7,0 1,0 6.3,0 12.5,0 18.8,0 5.7,0 11.4,0 17.1,0 0.7,0.1 1.5,0.1 2.4,0.1 z"
   id="path76" />
		<path
   class="st0"
   d="m 486.1,34.6 c 0.9,-0.2 1.3,-0.8 1.3,-1.7 0,-0.8 -0.5,-1.4 -1.3,-1.5 -0.4,-0.1 -0.8,-0.1 -1.2,-0.1 -5.7,0 -11.4,0 -17,0 -5.7,0 -11.4,0 -17,0 -0.4,0 -0.9,0 -1.3,0.1 -0.8,0.2 -1.3,0.7 -1.3,1.5 0,0.8 0.4,1.4 1.2,1.6 0.3,0.1 0.6,0.1 1,0.1 11.6,0 23.2,0 34.7,0 0.2,0.1 0.6,0.1 0.9,0 z"
   id="path78" />
		<path
   class="st0"
   d="m 437.3,69.2 c 3.8,0 7.6,0 11.4,0 1.9,0 3.8,0 5.7,0 2,0 4,0 6,0 1.1,0 1.7,-0.7 1.8,-1.6 0,-0.9 -0.7,-1.6 -1.7,-1.7 -0.2,0 -0.4,0 -0.7,0 -7.4,0 -14.8,0 -22.2,0 -0.4,0 -0.9,0 -1.3,0.1 -1.2,0.4 -1.4,2 -0.5,2.8 0.5,0.4 1,0.4 1.5,0.4 z"
   id="path80" />
		<path
   class="st0"
   d="m 484.1,55.5 c -1.2,0.2 -1.7,0.8 -1.6,1.8 0.1,1 0.8,1.5 1.9,1.5 3.1,-0.1 5.2,-2.3 5.3,-5.4 0,-0.5 0,-1 0,-1.5 0,-0.8 0.2,-1.4 1,-1.7 0.7,-0.3 1,-0.8 1,-1.5 0,-0.7 -0.4,-1.2 -1,-1.5 -0.8,-0.3 -1.1,-0.9 -1,-1.7 0,-0.5 0,-1 0,-1.5 0,-3.1 -2.2,-5.3 -5.3,-5.4 -1.1,0 -1.9,0.5 -1.9,1.5 -0.1,1 0.5,1.6 1.6,1.8 1.8,0.2 2.3,0.8 2.3,2.7 0,1.4 -0.1,2.8 0.8,4 0.1,0.2 0.1,0.4 0,0.6 -0.8,1.2 -0.8,2.5 -0.8,3.9 0,1.6 -0.3,2 -2.3,2.4 z"
   id="path82" />
		<path
   class="st0"
   d="m 426.2,37.4 c 0,-2 0.3,-2.4 2.3,-2.7 1.1,-0.2 1.7,-0.8 1.6,-1.8 -0.1,-0.9 -0.8,-1.4 -1.9,-1.4 -3,0 -5.3,2.3 -5.3,5.3 0,0.6 0,1.2 0,1.8 0,0.7 -0.3,1.3 -1,1.5 -0.7,0.3 -1.1,0.8 -1.1,1.6 0,0.7 0.4,1.2 1.1,1.5 0.7,0.3 1,0.9 1,1.6 0,0.6 0,1.2 0,1.8 0.1,3 2.3,5.2 5.3,5.3 1.1,0 1.8,-0.6 1.9,-1.5 0.1,-1 -0.5,-1.6 -1.7,-1.8 -1.8,-0.2 -2.3,-0.8 -2.2,-2.6 0,-1.4 0.1,-2.9 -0.8,-4.1 -0.2,-0.2 -0.1,-0.4 0,-0.6 0.8,-1.2 0.8,-2.6 0.8,-3.9 z"
   id="path84" />
		<path
   class="st0"
   d="m 435.4,61.4 c 0.3,0.7 1,1 1.7,0.9 2.5,0 4.9,0 7.4,0 2.5,0 5,0 7.5,0 1.2,0 1.9,-0.7 1.9,-1.7 0,-1 -0.7,-1.6 -1.8,-1.6 -5,0 -10,0 -15.1,0 -0.6,0 -1.2,0.2 -1.5,0.7 -0.3,0.5 -0.4,1.1 -0.1,1.7 z"
   id="path86" />
		<path
   class="st0"
   d="m 477.7,46.8 c 0,-1 -0.7,-1.6 -2,-1.6 -2.3,0 -4.7,0 -7,0 -2.4,0 -4.7,0 -7.1,0 -1.3,0 -1.9,0.6 -1.9,1.6 0,1 0.7,1.7 1.9,1.7 4.7,0 9.5,0 14.2,0 1.2,0 1.9,-0.7 1.9,-1.7 z"
   id="path88" />
		<path
   class="st0"
   d="m 441.9,55.4 c 0.1,0 0.1,0 0.2,0 0.9,-0.1 1.5,-0.5 1.6,-1.5 0.1,-0.9 -0.5,-1.7 -1.4,-1.7 -1.9,-0.1 -3.7,-0.1 -5.6,0 -0.9,0 -1.5,0.8 -1.4,1.7 0.1,0.9 0.7,1.4 1.6,1.5 0.9,0 1.7,0 2.6,0 0,0 0,0 0,0 0.8,0 1.6,0 2.4,0 z"
   id="path90" />
		<path
   class="st0"
   d="m 442,45.2 c -0.8,0 -1.7,0 -2.5,0 0,0 0,0 0,0 -0.9,0 -1.8,0 -2.7,0 -0.9,0 -1.5,0.6 -1.5,1.5 -0.1,0.9 0.4,1.6 1.4,1.7 1.9,0.2 3.8,0.2 5.7,0 0.9,-0.1 1.4,-0.7 1.4,-1.7 -0.2,-0.8 -0.8,-1.4 -1.8,-1.5 z"
   id="path92" />
		<path
   class="st0"
   d="m 455.1,48.5 c 1,0 1.5,-0.8 1.4,-1.7 -0.1,-0.9 -0.6,-1.5 -1.6,-1.5 -0.9,0 -1.7,0 -2.6,0 -0.9,0 -1.7,0 -2.6,0 -0.9,0 -1.5,0.5 -1.6,1.5 -0.1,0.9 0.4,1.7 1.4,1.7 1.9,0 3.8,0 5.6,0 z"
   id="path94" />
		<path
   class="st0"
   d="m 436.8,34.6 c 1.7,0.1 3.5,0.1 5.2,0 1,0 1.7,-0.7 1.6,-1.7 -0.1,-1 -0.6,-1.5 -1.6,-1.6 -0.9,0 -1.7,0 -2.6,0 0,0 0,0 0,0 -0.9,0 -1.7,0 -2.6,0 -1,0.1 -1.6,0.7 -1.6,1.6 0,1 0.6,1.7 1.6,1.7 z"
   id="path96" />
		<path
   class="st0"
   d="m 464.2,60.5 c -0.1,-0.8 -0.6,-1.3 -1.4,-1.4 -0.5,-0.1 -0.9,0 -1.4,0 -0.5,0 -1,0 -1.5,0 -0.8,0.1 -1.3,0.6 -1.4,1.4 -0.1,0.9 0.3,1.5 1.1,1.7 1.1,0.3 2.3,0.2 3.5,0 0.8,-0.2 1.2,-0.8 1.1,-1.7 z"
   id="path98" />
		<path
   class="st0"
   d="m 431.3,15.9 h 0.3 c 1,0 1.7,-0.7 1.6,-1.7 -0.1,-1 -0.6,-1.5 -1.6,-1.6 h -0.3 c -1,0.1 -1.6,0.7 -1.6,1.6 0.1,1 0.7,1.6 1.6,1.7 z"
   id="path100" />
		<path
   class="st0"
   d="m 424.3,15.9 h 0.3 c 1,0 1.7,-0.7 1.6,-1.7 -0.1,-1 -0.6,-1.5 -1.6,-1.6 h -0.3 c -1,0.1 -1.6,0.7 -1.6,1.6 0,1 0.6,1.6 1.6,1.7 z"
   id="path102" />
		<path
   class="st0"
   d="m 417.3,15.9 h 0.3 c 1,0 1.7,-0.7 1.6,-1.7 -0.1,-1 -0.6,-1.5 -1.6,-1.6 h -0.3 c -1,0.1 -1.6,0.7 -1.6,1.6 0,1 0.6,1.6 1.6,1.7 z"
   id="path104" />
		<path
   class="st0"
   d="m 534.8,28.6 c 0,-0.2 0,-0.4 -0.1,-0.5 0,-0.2 -0.1,-0.5 -0.1,-0.7 -0.3,-1.5 -0.8,-2.8 -1.6,-4.1 -1.7,-2.6 -4.1,-4.2 -7.1,-4.7 -4.2,-0.7 -7.7,0.7 -10.4,4 -1.7,2.1 -2.5,4.7 -2.2,7.5 0.4,4.8 4.1,8.9 8.9,9.7 0.3,0 0.6,0.1 0.9,0.1 l 0.4,0.1 h 1.2 l 0.4,-0.1 c 0.2,0 0.5,-0.1 0.7,-0.1 2.3,-0.4 4.3,-1.4 5.9,-3.1 1.4,-1.4 2.4,-3.1 2.8,-5.1 0.1,-0.6 0.2,-1.1 0.3,-1.8 V 29.7 Z M 530,23.2 c -0.1,0 -0.1,0.1 -0.2,0.1 -0.6,0.3 -1.3,0.5 -2,0.6 -0.4,-1 -0.8,-1.9 -1.4,-2.9 1.1,0.4 2.7,1.3 3.6,2.2 z m -6,-1.7 c 0.6,0.9 1,1.8 1.4,2.7 -0.9,0.1 -1.8,0.1 -2.9,0 0.5,-1 1,-1.8 1.5,-2.7 z m -7.4,3.6 c 0.8,0.4 1.5,0.6 2.3,0.8 0.2,0.1 0.4,0.1 0.6,0.1 -0.1,0.6 -0.2,1.2 -0.3,1.9 -0.3,0 -0.5,0 -0.8,0 -0.2,0 -0.4,0 -0.5,0 h -0.5 -0.5 c -0.4,0 -0.8,0 -1.2,0 0.1,-0.9 0.4,-1.9 0.9,-2.8 z m 0,8.1 c -0.5,-0.9 -0.8,-1.8 -0.9,-2.9 0.4,0 0.8,0 1.2,0 h 0.6 0.5 c 0.4,0 0.9,0 1.3,0 0.1,0.6 0.2,1.3 0.3,1.9 -0.7,0.2 -1.5,0.4 -2.3,0.7 -0.3,0.1 -0.5,0.2 -0.7,0.3 z m 1.4,1.9 c 0.1,0 0.1,-0.1 0.2,-0.1 0.6,-0.2 1.3,-0.4 1.9,-0.6 0.3,0.9 0.7,1.7 1.2,2.6 0,0.1 0.1,0.1 0.1,0.2 -1.2,-0.4 -2.4,-1.1 -3.4,-2.1 z m 2.2,-11.2 c -0.8,-0.2 -1.5,-0.4 -2.2,-0.7 1,-1 2.2,-1.7 3.5,-2.1 -0.5,0.9 -0.9,1.8 -1.3,2.8 z m 3.8,12.9 c -0.6,-0.9 -1,-1.8 -1.4,-2.7 0.9,-0.1 1.9,-0.1 2.9,0 -0.4,0.9 -0.9,1.8 -1.5,2.7 z m 2.2,-5 c -1.1,-0.1 -2.3,-0.1 -3.5,-0.1 -0.3,0 -0.6,0 -0.9,0.1 -0.1,-0.5 -0.2,-1 -0.3,-1.5 0.6,0 1.2,0 1.8,0 h 1.4 c 0.6,0 1.2,0 1.8,0 -0.1,0.5 -0.1,1 -0.3,1.5 z M 525.4,28 c -0.2,0 -0.5,0 -0.7,0 h -1.4 c -0.6,0 -1.2,0 -1.8,0 0.1,-0.5 0.2,-1 0.3,-1.5 1.1,0.1 2.3,0.1 3.3,0.1 0.4,0 0.7,-0.1 1.1,-0.1 0.1,0.5 0.2,1 0.3,1.5 -0.4,0 -0.7,0 -1.1,0 z m 1.1,9.2 c 0.5,-0.9 1,-1.8 1.3,-2.8 0.7,0.2 1.5,0.4 2.2,0.7 -1,1 -2.1,1.7 -3.5,2.1 z m 5,-4 c -0.9,-0.4 -1.9,-0.8 -2.9,-1 0.1,-0.6 0.2,-1.2 0.3,-1.9 1.2,0 2.4,0 3.6,0 -0.2,1.1 -0.6,2 -1,2.9 z M 531.2,28 h -1 c -0.4,0 -0.9,0 -1.3,0 -0.1,-0.6 -0.2,-1.3 -0.3,-1.9 1,-0.2 2,-0.5 2.9,-1 0.5,0.9 0.8,1.9 0.9,2.9 -0.4,0 -0.8,0 -1.2,0 z"
   id="path106" />
		<path
   class="st0"
   d="m 415.4,110.2 c 1.2,-1.3 2.4,-2.5 3.6,-3.8 l 0.7,-0.8 c 0.1,-0.1 0.2,-0.2 0.3,-0.4 0.5,-0.8 0.3,-1.8 -0.4,-2.4 -0.7,-0.6 -1.7,-0.4 -2.4,0.3 l -5.3,5.6 c -0.2,0.3 -0.5,0.5 -0.6,0.9 l -0.1,0.7 0.1,0.3 c 0.2,0.4 0.4,0.7 0.6,0.9 l 5.3,5.6 c 0.1,0.1 0.2,0.2 0.2,0.2 0.3,0.3 0.7,0.4 1.2,0.4 0.2,0 0.4,0 0.6,-0.1 0.6,-0.2 1,-0.7 1.2,-1.3 0.1,-0.6 -0.1,-1.1 -0.5,-1.6 z"
   id="path108" />
		<path
   class="st0"
   d="m 428,99.7 c -0.9,-0.1 -1.8,0.5 -1.9,1.5 l -2.6,17.2 c 0,0.2 -0.1,0.5 0,0.9 0.2,0.8 0.9,1.3 1.7,1.3 0,0 0.1,0 0.1,0 0.9,-0.1 1.5,-0.7 1.6,-1.5 l 2.6,-17.3 v -0.1 c 0.1,-1.1 -0.5,-1.9 -1.5,-2 z"
   id="path110" />
		<path
   class="st0"
   d="m 435.9,103.2 c -0.1,-0.1 -0.2,-0.3 -0.4,-0.4 -0.5,-0.4 -1.1,-0.5 -1.7,-0.3 -0.6,0.2 -1,0.7 -1.1,1.3 -0.1,0.6 0,1.2 0.5,1.7 l 4.3,4.6 c -1.4,1.5 -2.9,3.1 -4.3,4.6 -0.1,0.1 -0.2,0.2 -0.3,0.3 -0.5,0.8 -0.4,1.8 0.4,2.4 0.3,0.2 0.7,0.4 1.1,0.4 0.5,0 1,-0.2 1.3,-0.6 l 5.4,-5.8 c 0.1,-0.1 0.6,-0.6 0.6,-1.3 0,-0.6 -0.3,-1.1 -0.6,-1.3 z m -2,13.6 z"
   id="path112" />
	</g>
<g
   id="Capa_2">
</g>
</svg>
