<?xml version="1.0" encoding="UTF-8" standalone="no"?>
<!-- Generator: Adobe Illustrator 24.0.2, SVG Export Plug-In . SVG Version: 6.00 Build 0)  -->

<svg
   version="1.1"
   x="0px"
   y="0px"
   viewBox="0 0 150 127.9"
   xml:space="preserve"
   id="svg118"
   sodipodi:docname="car01.svg"
   width="150"
   height="127.9"
   inkscape:version="1.1.1 (eb90963e84, 2021-10-02)"
   xmlns:inkscape="http://www.inkscape.org/namespaces/inkscape"
   xmlns:sodipodi="http://sodipodi.sourceforge.net/DTD/sodipodi-0.dtd"
   xmlns="http://www.w3.org/2000/svg"
   xmlns:svg="http://www.w3.org/2000/svg"><defs
   id="defs122">
	
	
	
</defs><sodipodi:namedview
   id="namedview120"
   pagecolor="#505050"
   bordercolor="#eeeeee"
   borderopacity="1"
   inkscape:pageshadow="0"
   inkscape:pageopacity="0"
   inkscape:pagecheckerboard="0"
   showgrid="false"
   inkscape:zoom="2.4832963"
   inkscape:cx="176.57982"
   inkscape:cy="63.826456"
   inkscape:window-width="1920"
   inkscape:window-height="1016"
   inkscape:window-x="0"
   inkscape:window-y="27"
   inkscape:window-maximized="1"
   inkscape:current-layer="svg118" />
<style
   type="text/css"
   id="style2">
	.st0{fill:#FD4776;}
	.st1{fill:#26FEFB;}
	.st2{fill:#FFFFFF;}
</style>
<g
   id="g34"
   transform="translate(2)">
		<path
   class="st0"
   d="m 134.9,69 c -13,0 -26,0 -39,0 -3.2,0 -5.1,2 -5.1,5.2 0,7.4 0,14.8 0,22.2 0,3.5 1.9,5.4 5.4,5.4 7.8,0 15.6,0 23.4,0 0.7,0 1.1,0.2 1.6,0.7 2.9,3 5.9,5.9 8.9,8.9 0.8,0.8 1.5,1.4 2.7,0.9 1.2,-0.5 1.3,-1.5 1.3,-2.6 0,-2.4 0,-4.7 0,-7.1 0,-0.6 0.2,-0.8 0.8,-0.8 1.8,0.1 3.2,-0.5 4.4,-1.9 0.5,-0.6 0.7,-1.4 1,-2.1 0,-8.3 0,-16.6 0,-25 -1,-2.4 -2.6,-3.8 -5.4,-3.8 z m 1.2,27.5 c 0,1.1 -0.2,1.3 -1.3,1.3 -0.9,0 -1.9,0 -2.8,0 -1.3,0.1 -2,0.8 -2,2.1 0,1.8 0,3.6 0,5.5 -0.4,-0.1 -0.6,-0.4 -0.8,-0.5 -2,-2 -4,-4 -6,-6 -0.7,-0.8 -1.6,-1.1 -2.6,-1.1 -8.1,0 -16.1,0 -24.2,0 -1.5,0 -1.6,-0.1 -1.6,-1.6 0,-7.3 0,-14.5 0,-21.8 0,-1.3 0.1,-1.4 1.4,-1.4 12.9,0 25.7,0 38.6,0 1.2,0 1.3,0.1 1.3,1.3 0,7.4 0,14.8 0,22.2 z"
   id="path4" />
		<path
   class="st0"
   d="m 106.1,83.4 c -1.1,0 -2,0.9 -1.9,2 0,1.1 0.9,2 2,2 1.1,0 2,-1 2,-2 -0.1,-1.1 -1,-2 -2.1,-2 z"
   id="path6" />
		<path
   class="st0"
   d="m 115.4,83.4 c -1.1,0 -2,0.9 -1.9,2 0,1.1 0.9,2 2,2 1.1,0 2,-1 1.9,-2 0,-1.1 -0.9,-2 -2,-2 z"
   id="path8" />
		<path
   class="st0"
   d="m 124.7,83.4 c -1.1,0 -2,0.9 -2,2 0,1.1 0.9,2 2,2 1.1,0 2,-0.9 1.9,-2 0.1,-1.1 -0.8,-2 -1.9,-2 z"
   id="path10" />
		<path
   class="st1"
   d="m 21.9,81.4 v 0 c 0.2,-0.3 0.3,-0.7 0.3,-1 0,-21.3 0,-38.2 0,-59.5 0,-0.3 0,-0.6 0,-0.9 0.1,-1.4 0.4,-2.8 1.1,-4.1 1.9,-3.4 4.8,-5.2 8.7,-5.2 12.9,0 25.8,0 38.8,0 1.1,0 2.2,0.2 3.2,0.6 1.5,0.5 2.7,1.3 3.7,2.4 0.4,0.4 1,0.5 1.5,0.3 0.4,-0.2 0.8,-0.4 1.1,-0.5 0.8,-0.4 1,-1.4 0.4,-2.1 0,0 0,0 0,0 C 79,9.5 76.9,8.2 74.5,7.5 73.4,7.2 72.4,6.9 71.2,6.9 c -12.7,0 -25.4,0 -38,0 -1.1,0 -2.3,-0.1 -3.4,0.2 -1.7,0.4 -3.3,0.9 -4.8,1.8 -2.6,1.5 -4.4,3.7 -5.6,6.4 -0.7,1.8 -1,3.6 -1,5.6 0,9.5 0,18.9 0,28.4 0,2.7 0,5.5 0,8.2 0,0.3 -0.1,0.6 -0.4,0.8 -1,0.6 -1.8,1.4 -2.3,2.4 -0.5,1.1 -1,2.2 -1.5,3.3 -0.9,2 -1.9,4.1 -2.8,6.1 -1,2.2 -2,4.4 -3,6.6 -0.7,1.5 -1.4,3 -2,4.5 -0.7,1.6 -1.1,3.3 -1.3,5.1 0,0.2 0,0.4 -0.3,0.4 0,12.2 0,24.4 0,36.6 0,0.2 0.2,0.3 0.3,0.3 1.2,0 2.4,0 3.6,0 0,-0.2 0,-0.5 0,-0.7 0,-11.1 0,-22.3 0,-33.4 0,-2.2 0.3,-4.3 1,-6.3 0.4,-1.2 1,-2.3 1.5,-3.5 0.9,-1.9 1.7,-3.7 2.6,-5.6 1,-2.2 2,-4.4 3.1,-6.6 0.4,-0.9 0.8,-1.8 1.2,-2.7 0,-0.1 0,-0.3 0.2,-0.2 0.2,0 0.1,0.2 0.1,0.3 0,0.2 0,0.4 0,0.7 0,5 0,9.4 0,15.1 -0.1,1.5 2.5,2.3 3.5,0.7 z"
   id="path12" />
		<path
   class="st1"
   d="m 82.7,83.7 c -1.2,-0.1 -2.2,0.8 -2.2,1.9 0,1.5 0,2.9 0,4.4 0,1.4 -0.2,2.8 -0.8,4 -1.8,3.7 -4.7,5.8 -8.9,5.9 -11.6,0.1 -23.3,0 -34.9,0 -0.3,0 -0.4,-0.2 -0.3,-0.5 1.9,-3.4 3.9,-6.7 5.8,-10.1 0.1,-0.1 0.2,-0.3 0.4,-0.3 -0.1,0.9 -0.1,1.8 0.1,2.6 0.6,2.5 2.9,4.3 5.4,4.4 2.7,0 5.5,0 8.2,0 0.8,0 1.6,-0.2 2.3,-0.6 2.5,-1.2 3.8,-4 3.1,-6.7 -0.6,-2.3 -2.8,-4.3 -5.2,-4.3 -2.8,-0.1 -5.7,0 -8.5,0 -1.4,0 -2.6,0.6 -3.6,1.6 -0.2,0.2 -0.3,0.3 -0.5,0.5 -0.1,-0.2 0,-0.2 0,-0.3 0.5,-1.6 0.5,-3.3 -0.1,-4.9 -1.1,-3 -3.3,-4.8 -6.6,-5.1 -3.1,-0.3 -5.7,1 -7.3,3.7 -1.8,2.9 -3.4,5.8 -5.1,8.8 -0.2,0.3 -0.4,0.6 -0.5,1 0,0 -1.4,2.2 -2.5,4 -0.7,1.1 -0.2,2.6 1.1,3 0.9,0.3 1.9,-0.1 2.4,-0.9 0.8,-1.3 1.5,-2.6 2.3,-3.9 1.9,-3.3 3.8,-6.6 5.8,-9.9 0.8,-1.3 2,-1.8 3.5,-1.7 1.5,0.1 2.6,0.9 3.2,2.2 0.6,1.3 0.5,2.5 -0.2,3.8 -2.8,4.9 -5.7,9.9 -8.5,14.8 -0.5,0.8 -0.4,1.5 0,2.3 1.5,2.4 2.9,4.8 4.3,7.2 0.7,1.2 1.1,2.6 1.1,4 0,2.8 0,5.5 0,8.3 0,0.2 0,0.4 0,0.7 h 3.9 c 0,-0.1 0,-0.2 0,-0.3 0,-2.9 0,-5.8 0,-8.7 0,-2.1 -0.6,-4.1 -1.6,-5.9 -0.8,-1.4 -1.6,-2.8 -2.5,-4.1 -0.2,-0.3 -0.2,-0.4 0.2,-0.4 0.1,0 0.2,0 0.2,0 11.5,0 22.9,0 34.4,0 2.6,0 5,-0.6 7.2,-2 4,-2.5 6.3,-6.1 6.6,-10.8 0.1,-1.8 0.1,-3.6 0.1,-5.4 -0.1,-1.3 -0.8,-2.1 -1.8,-2.3 z m -35.2,4.6 c 1.9,0 3.9,0 5.8,0 0.6,0 1.3,0 1.9,0 1.1,0 2,0.9 2,2 0,1.1 -0.9,1.9 -2,1.9 -1.3,0 -2.6,0 -3.8,0 v 0 c -1.3,0 -2.6,0 -3.9,0 -1.1,0 -1.9,-0.9 -1.9,-2 -0.1,-1 0.8,-1.8 1.9,-1.9 z"
   id="path14" />
		<path
   class="st2"
   d="m 74.6,69.8 c -1,-0.7 -2,-1.5 -3,-2.4 -0.7,-0.6 -1.4,-0.8 -2.3,-0.6 -2.1,0.4 -4.2,0.8 -6.3,1.2 -0.7,0.1 -1.4,0.3 -2,0.4 -0.2,0 -0.3,0.1 -0.5,0 -0.1,-0.2 0.1,-0.3 0.1,-0.4 1.5,-2.5 2.9,-5 4.4,-7.4 0.5,-0.8 0.5,-1.6 0.1,-2.4 -0.9,-2 -1.5,-4.1 -1.8,-6.3 -0.4,-2.3 -0.4,-4.7 -0.2,-7 0.2,-1.6 0.4,-3.1 0.9,-4.6 0.8,-2.8 2,-5.5 3.7,-7.9 2.4,-3.5 5.4,-6.3 9,-8.3 1.8,-1 3.6,-1.8 5.6,-2.4 2.6,-0.8 5.2,-1.2 8.2,-1.2 1.9,0 4.1,0.2 6.2,0.8 7.5,2 13.3,6.3 17.2,13.1 1.8,3.2 2.9,6.6 3.3,10.2 0.3,2.8 0.2,5.6 -0.4,8.4 -1,4.7 -2.9,8.7 -5.9,12.2 h 4.9 c 1.9,-2.8 3.3,-5.8 4.2,-9.1 0.5,-1.8 0.8,-3.6 1,-5.4 0.3,-2.4 0.2,-4.9 -0.1,-7.3 -0.3,-2.2 -0.8,-4.3 -1.6,-6.4 -1,-2.6 -2.3,-5.1 -3.9,-7.4 -4.1,-5.7 -9.6,-9.6 -16.3,-11.7 -2.9,-0.9 -5.8,-1.3 -9,-1.3 -2.6,-0.1 -5.3,0.3 -8,1 -2.1,0.6 -4.1,1.4 -6,2.3 -3.4,1.7 -6.3,3.9 -8.8,6.7 -3.3,3.6 -5.6,7.8 -6.9,12.5 -0.6,2 -0.9,4.1 -1.1,6.2 -0.2,2.9 0,5.8 0.6,8.6 0.4,1.6 0.8,3.2 1.4,4.7 0.1,0.2 0.1,0.4 -0.1,0.6 -2.2,3.7 -4.2,7.3 -6.3,10.8 -0.3,0.6 -0.5,1.2 -0.3,1.8 0.4,0.9 1.1,1.4 2.1,1.2 1.5,-0.2 3,-0.5 4.6,-0.8 2.6,-0.5 5.2,-1 7.7,-1.5 0.3,-0.1 0.6,0 0.8,0.2 3.3,2.8 7,4.9 11.1,6.2 1.9,0.6 3.8,1 5.7,1.2 v -3.9 c -1.6,-0.2 -3.1,-0.5 -4.7,-1 -2.6,-0.8 -5,-2 -7.3,-3.6 z"
   id="path16" />
		<path
   class="st0"
   d="m 46.6,35.7 c 0.2,-0.2 0.3,-0.4 0,-0.7 -0.7,-0.7 -1.4,-1.4 -2,-2.1 -0.3,-0.3 -0.5,-0.3 -0.7,0 -0.8,0.8 -1.5,1.5 -2.3,2.3 -0.2,0.2 -0.4,0.2 -0.7,0.1 -2.8,-1.7 -5.8,-1.8 -8.8,-0.6 -3.6,1.5 -5.9,5.1 -5.9,9.1 0,1.2 0.3,2.6 0.8,3.8 1.1,2.4 2.9,4.1 5.3,5.1 2.8,1.1 5.5,0.9 8.1,-0.5 2.7,-1.5 4.4,-3.8 5,-6.8 0.5,-2.4 0,-4.6 -1.2,-6.7 C 44,38.5 44,38.3 44.3,38 45,37.2 45.8,36.5 46.6,35.7 Z M 35.1,49.5 c -4,-0.5 -6.3,-4.9 -4.4,-8.4 1.3,-2.6 4.2,-3.8 6.9,-2.9 0.8,0.2 0.8,0.3 0.2,0.8 -1.7,1.6 -2.1,2.1 -3.7,3.7 -0.2,0.2 -0.3,0.4 0,0.7 0.7,0.7 1.4,1.4 2.1,2.1 0.3,0.3 0.4,0.2 0.7,0 1.7,-1.7 2.1,-2.1 3.8,-3.8 0.4,-0.4 0.4,-0.4 0.6,0.1 0.2,0.6 0.4,1.3 0.4,1.9 -0.1,3.5 -3.2,6.2 -6.6,5.8 z"
   id="path18" />
		<path
   class="st2"
   d="m 59.1,18 c 0,-1 0,-2 0,-3 0,-0.3 -0.1,-0.4 -0.4,-0.4 -4.9,0 -9.8,0 -14.7,0 -0.3,0 -0.4,0.1 -0.4,0.4 0,1 0,2 0,3 0,0.4 0.1,0.5 0.5,0.5 2.4,0 4.9,0 7.3,0 2.4,0 4.9,0 7.3,0 0.3,0 0.4,-0.1 0.4,-0.5 z"
   id="path20" />
		<path
   class="st0"
   d="m 57.2,38.3 c 0,-0.3 -0.1,-0.4 -0.4,-0.4 -2.3,0 -4.6,0 -6.9,0 -0.3,0 -0.4,0.1 -0.4,0.4 0,1 0,2 0,3 0,0.4 0.1,0.5 0.5,0.5 1.1,0 2.3,0 3.4,0 1.1,0 2.3,0 3.4,0 0.3,0 0.4,-0.1 0.4,-0.4 0,-1.1 0,-2.1 0,-3.1 z"
   id="path22" />
		<path
   class="st0"
   d="m 56.7,45.6 c -2.3,0 -4.6,0 -6.9,0 -0.3,0 -0.4,0.1 -0.4,0.4 0,1 0,2 0,3 0,0.4 0.1,0.4 0.5,0.4 1.1,0 2.3,0 3.4,0 1.2,0 2.3,0 3.5,0 0.3,0 0.5,-0.1 0.4,-0.4 0,-1 0,-2 0,-3.1 0,-0.2 -0.2,-0.3 -0.5,-0.3 z"
   id="path24" />
		<path
   class="st2"
   d="m 39.3,14.6 c -1.1,0 -2.1,0 -3.2,0 -0.2,0 -0.3,0.1 -0.3,0.3 0,1.1 0,2.1 0,3.2 0,0.3 0.1,0.4 0.4,0.4 1,0 2.1,0 3.1,0 0.3,0 0.4,-0.1 0.4,-0.4 0,-0.5 0,-1 0,-1.5 0,-0.5 0,-1.1 0,-1.6 0,-0.3 -0.1,-0.4 -0.4,-0.4 z"
   id="path26" />
		<path
   class="st0"
   d="m 124,18.5 c 1.2,0.3 2.3,0.7 3.4,1.3 1.4,0.8 2.7,1.9 3.7,3.3 1.2,1.6 1.9,3.4 2.2,5.3 0.2,1.4 0.2,2.9 -0.1,4.5 -0.1,0.5 0,1.1 0.3,1.5 0.3,0.4 0.7,0.7 1.2,0.8 0.1,0 0.3,0 0.4,0 0.9,0 1.7,-0.6 1.9,-1.6 0.7,-3.3 0.4,-6.5 -0.8,-9.5 -0.2,-0.4 -0.3,-0.8 -0.5,-1.2 l -1.3,-2.2 -0.2,-0.2 c -1.6,-2.2 -3.7,-3.8 -6.2,-5 -1,-0.4 -2,-0.8 -3.1,-1 -0.9,-0.2 -1.7,0.2 -2.1,0.9 -0.4,0.7 -0.3,1.6 0.2,2.2 0.2,0.7 0.7,0.9 1,0.9 z"
   id="path28" />
		<path
   class="st0"
   d="m 120.2,24.1 0.4,0.1 c 0.3,0.1 0.6,0.2 0.9,0.3 2.8,1.2 4.3,3.2 4.9,6.2 0.1,0.8 0.1,1.7 -0.1,2.8 -0.1,0.5 0,1.1 0.3,1.5 0.3,0.4 0.7,0.7 1.3,0.8 0.1,0 0.2,0 0.3,0 0.9,0 1.7,-0.6 1.9,-1.6 0.6,-3.1 0.1,-6 -1.6,-8.8 v 0 c -0.5,-0.8 -1,-1.4 -1.5,-1.9 -1.6,-1.6 -3.5,-2.6 -5.6,-3.1 -1.1,-0.3 -2.1,0.3 -2.4,1.3 -0.5,1.1 0.1,2.1 1.2,2.4 z"
   id="path30" />
		<path
   class="st2"
   d="m 82.6,36.5 c -1.4,0 -2.9,0 -4.3,0 -1.1,0 -1.9,0.7 -1.9,1.9 0,3.3 0,6.6 0,9.9 0,0 0,0 0,0 0,3.3 0,6.5 0,9.8 0,2.7 2.2,4.9 4.9,4.9 5.6,0 11.1,0 16.7,0 0.5,0 1,-0.1 1.5,-0.3 2.1,-0.8 3.4,-2.6 3.4,-4.8 0,-6.5 0,-13 0,-19.5 0,-1.2 -0.7,-1.9 -1.9,-1.9 -1.5,0 -2.9,0 -4.4,0 -0.3,0 -0.4,-0.1 -0.4,-0.4 0,-0.4 0,-0.8 0,-1.1 0,-1.1 -0.2,-2.1 -0.7,-3.1 -1.7,-3.4 -5.8,-4.7 -9.2,-2.9 -1.7,1 -2.8,2.4 -3.2,4.3 -0.2,0.9 -0.2,1.8 -0.2,2.7 0.1,0.4 0,0.5 -0.3,0.5 z m 16.9,21.6 c 0,0.9 -0.7,1.6 -1.6,1.6 -0.1,0 -0.2,0 -0.2,0 -5.4,0 -10.8,0 -16.2,0 -0.6,0 -1.1,-0.2 -1.5,-0.7 -0.2,-0.3 -0.3,-0.6 -0.3,-0.9 0,-0.4 0,-0.9 0,-1.3 0,-0.3 0.1,-0.4 0.4,-0.4 3.2,0 6.4,0 9.5,0 3.2,0 6.4,0 9.5,0 0.3,0 0.4,0.1 0.4,0.4 0,0.4 0,0.8 0,1.3 z M 86.4,33.8 c 0.5,-1.6 2.4,-2.6 4,-2.1 1.3,0.4 2.5,1.8 2.4,3.3 0,0.4 0,0.8 0,1.1 0,0.3 -0.1,0.4 -0.4,0.4 -1,0 -2,0 -2.9,0 -1,0 -2,0 -2.9,0 -0.3,0 -0.4,-0.1 -0.4,-0.4 0.1,-0.7 0,-1.5 0.2,-2.3 z m -3,9.3 c 0.8,0 1.7,0 2.5,0 0.3,0 0.4,-0.1 0.4,-0.4 0,-0.8 0,-1.7 0,-2.5 0,-0.4 0,-0.4 0.5,-0.4 1.9,0 3.8,0 5.7,0 0.3,0 0.5,0.1 0.4,0.4 0,0.8 0,1.7 0,2.5 0,0.3 0.1,0.4 0.4,0.4 0.8,0 1.7,0 2.5,0 0.3,0 0.4,-0.1 0.4,-0.4 0,-0.8 0,-1.7 0,-2.5 0,-0.3 0.1,-0.4 0.4,-0.4 0.8,0 1.7,0 2.5,0 0.3,0 0.4,0.1 0.4,0.4 0,4.2 0,8.4 0,12.5 0,0.3 -0.1,0.4 -0.4,0.4 -3.2,0 -6.4,0 -9.5,0 -3.2,0 -6.3,0 -9.5,0 -0.4,0 -0.4,-0.1 -0.4,-0.4 0,-4.1 0,-8.2 0,-12.4 0,-0.4 0,-0.5 0.5,-0.5 0.8,0 1.6,0 2.5,0 0.3,0 0.4,0.1 0.4,0.4 0,0.8 0,1.7 0,2.5 -0.2,0.4 0,0.4 0.3,0.4 z"
   id="path32" />
	</g>
<g
   id="Capa_2">
</g>
</svg>
